<svg width="168" height="33" viewBox="0 0 168 33" fill="none" xmlns="http://www.w3.org/2000/svg">
<rect width="84" height="33" fill="#E60001"/>
<path d="M24.1152 24H20.8926L14.6191 13.709V24H11.3965V8.35938H14.6191L20.9033 18.6719V8.35938H24.1152V24ZM37.4398 17.2217H31.2523V21.4111H38.5141V24H28.0297V8.35938H38.4926V10.9697H31.2523V14.6973H37.4398V17.2217ZM53.6863 19.4883L55.7918 8.35938H59.0037L55.534 24H52.2898L49.7439 13.5371L47.198 24H43.9539L40.4842 8.35938H43.6961L45.8123 19.4668L48.3904 8.35938H51.1189L53.6863 19.4883ZM69.965 19.8965C69.965 19.2878 69.7502 18.8223 69.3205 18.5C68.8908 18.1706 68.1174 17.8268 67.0002 17.4688C65.883 17.1035 64.9986 16.7454 64.3469 16.3945C62.5708 15.4349 61.6828 14.1423 61.6828 12.5166C61.6828 11.6715 61.9191 10.9196 62.3918 10.2607C62.8716 9.59473 63.5555 9.07552 64.4436 8.70312C65.3387 8.33073 66.3413 8.14453 67.4514 8.14453C68.5686 8.14453 69.564 8.34863 70.4377 8.75684C71.3114 9.15788 71.9882 9.72721 72.468 10.4648C72.9549 11.2025 73.1984 12.0404 73.1984 12.9785H69.9758C69.9758 12.2624 69.7502 11.7074 69.299 11.3135C68.8479 10.9124 68.2141 10.7119 67.3977 10.7119C66.6099 10.7119 65.9976 10.8802 65.5607 11.2168C65.1239 11.5462 64.9055 11.9831 64.9055 12.5273C64.9055 13.0358 65.1597 13.4619 65.6682 13.8057C66.1838 14.1494 66.9393 14.4717 67.9348 14.7725C69.7681 15.3239 71.1037 16.0078 71.9416 16.8242C72.7795 17.6406 73.1984 18.6576 73.1984 19.875C73.1984 21.2285 72.6864 22.292 71.6623 23.0654C70.6382 23.8317 69.2596 24.2148 67.5266 24.2148C66.3234 24.2148 65.2277 23.9964 64.2395 23.5596C63.2512 23.1156 62.4956 22.5104 61.9729 21.7441C61.4572 20.9779 61.1994 20.0898 61.1994 19.0801H64.4328C64.4328 20.806 65.4641 21.6689 67.5266 21.6689C68.2928 21.6689 68.8908 21.515 69.3205 21.207C69.7502 20.8919 69.965 20.4551 69.965 19.8965Z" fill="white"/>
<rect width="84" height="33" transform="translate(84)" fill="#353236"/>
<path d="M110.626 24H107.403V17.2969H101.119V24H97.8965V8.35938H101.119V14.6973H107.403V8.35938H110.626V24ZM123.961 17.2217H117.774V21.4111H125.036V24H114.551V8.35938H125.014V10.9697H117.774V14.6973H123.961V17.2217ZM136.856 20.7773H131.206L130.132 24H126.705L132.527 8.35938H135.513L141.368 24H137.941L136.856 20.7773ZM132.076 18.167H135.986L134.02 12.3125L132.076 18.167ZM154.413 10.9697H149.622V24H146.4V10.9697H141.673V8.35938H154.413V10.9697Z" fill="white"/>
</svg>
