<svg width="48" height="48" viewBox="0 0 48 48" fill="none" xmlns="http://www.w3.org/2000/svg">
<rect width="48" height="24" fill="#E60001"/>
<path d="M13.7801 16.5714H11.9386L8.3538 10.6908V16.5714H6.51228V7.63391H8.3538L11.9448 13.5268V7.63391H13.7801V16.5714ZM21.3942 12.6981H17.8585V15.0921H22.008V16.5714H16.017V7.63391H21.9958V9.12554H17.8585V11.2556H21.3942V12.6981ZM30.6779 13.9933L31.881 7.63391H33.7164L31.7337 16.5714H29.8799L28.4251 10.5926L26.9703 16.5714H25.1165L23.1338 7.63391H24.9692L26.1785 13.981L27.6517 7.63391H29.2108L30.6779 13.9933ZM39.98 14.2265C39.98 13.8787 39.8573 13.6127 39.6117 13.4286C39.3662 13.2403 38.9242 13.0439 38.2858 12.8393C37.6474 12.6306 37.142 12.4259 36.7696 12.2254C35.7548 11.6771 35.2473 10.9384 35.2473 10.0095C35.2473 9.52658 35.3824 9.09689 35.6525 8.72041C35.9266 8.33983 36.3174 8.04314 36.8249 7.83034C37.3364 7.61754 37.9093 7.51114 38.5436 7.51114C39.182 7.51114 39.7509 7.62777 40.2501 7.86103C40.7494 8.0902 41.1361 8.41553 41.4103 8.83704C41.6885 9.25854 41.8277 9.73733 41.8277 10.2734H39.9862C39.9862 9.86419 39.8573 9.54704 39.5994 9.32197C39.3416 9.0928 38.9795 8.97822 38.5129 8.97822C38.0628 8.97822 37.7129 9.07439 37.4633 9.26672C37.2137 9.45497 37.0888 9.7046 37.0888 10.0156C37.0888 10.3062 37.2341 10.5496 37.5247 10.7461C37.8193 10.9425 38.251 11.1267 38.8199 11.2985C39.8675 11.6136 40.6307 12.0044 41.1095 12.471C41.5883 12.9375 41.8277 13.5186 41.8277 14.2143C41.8277 14.9877 41.5351 15.5954 40.9499 16.0374C40.3647 16.4752 39.5769 16.6942 38.5866 16.6942C37.8991 16.6942 37.273 16.5694 36.7083 16.3197C36.1435 16.066 35.7118 15.7202 35.4131 15.2823C35.1184 14.8445 34.9711 14.337 34.9711 13.76H36.8187C36.8187 14.7463 37.408 15.2394 38.5866 15.2394C39.0245 15.2394 39.3662 15.1514 39.6117 14.9754C39.8573 14.7954 39.98 14.5457 39.98 14.2265Z" fill="white"/>
<rect width="48" height="24" transform="translate(0 24)" fill="#353236"/>
<path d="M15.2148 40.5714H13.3733V36.7411H9.78236V40.5714H7.94084V31.6339H9.78236V35.2556H13.3733V31.6339H15.2148V40.5714ZM22.835 36.6981H19.2993V39.0921H23.4489V40.5714H17.4578V31.6339H23.4366V33.1255H19.2993V35.2556H22.835V36.6981ZM30.2036 38.7299H26.9748L26.3609 40.5714H24.4028L27.7298 31.6339H29.4363L32.7817 40.5714H30.8235L30.2036 38.7299ZM27.472 37.2383H29.7064L28.583 33.8928L27.472 37.2383ZM40.2362 33.1255H37.4984V40.5714H35.6569V33.1255H32.956V31.6339H40.2362V33.1255Z" fill="white"/>
</svg>
