<svg width="340" height="56" viewBox="0 0 340 56" fill="none" xmlns="http://www.w3.org/2000/svg">
<rect width="340" height="56" fill="white"/>
<rect y="20.75" width="20" height="1.5" fill="black"/>
<rect y="26.75" width="20" height="1.5" fill="black"/>
<rect y="32.75" width="20" height="1.5" fill="black"/>
<rect width="63.6364" height="25" transform="translate(109.242 15)" fill="#E60001"/>
<path d="M127.511 33H125.07L120.317 25.2038V33H117.876V21.151H120.317L125.078 28.9635V21.151H127.511V33ZM137.606 27.8649H132.918V31.0387H138.419V33H130.477V21.151H138.403V23.1286H132.918V25.9525H137.606V27.8649ZM149.914 29.582L151.509 21.151H153.942L151.313 33H148.856L146.927 25.0736L144.998 33H142.541L139.912 21.151H142.345L143.948 29.5658L145.902 21.151H147.969L149.914 29.582ZM162.246 29.8913C162.246 29.4301 162.083 29.0775 161.758 28.8333C161.432 28.5838 160.846 28.3234 160 28.0521C159.153 27.7754 158.483 27.5041 157.99 27.2383C156.644 26.5113 155.972 25.532 155.972 24.3005C155.972 23.6603 156.151 23.0906 156.509 22.5915C156.872 22.0869 157.39 21.6936 158.063 21.4115C158.741 21.1293 159.501 20.9883 160.342 20.9883C161.188 20.9883 161.942 21.1429 162.604 21.4521C163.266 21.756 163.779 22.1873 164.142 22.7461C164.511 23.3049 164.695 23.9397 164.695 24.6504H162.254C162.254 24.1079 162.083 23.6874 161.741 23.389C161.4 23.0852 160.919 22.9333 160.301 22.9333C159.704 22.9333 159.24 23.0608 158.909 23.3158C158.578 23.5653 158.413 23.8963 158.413 24.3086C158.413 24.6938 158.606 25.0166 158.991 25.277C159.381 25.5374 159.954 25.7816 160.708 26.0094C162.097 26.4272 163.109 26.9453 163.743 27.5638C164.378 28.1823 164.695 28.9527 164.695 29.875C164.695 30.9004 164.308 31.7061 163.532 32.292C162.756 32.8725 161.712 33.1628 160.399 33.1628C159.487 33.1628 158.657 32.9973 157.908 32.6663C157.16 32.33 156.587 31.8715 156.191 31.291C155.801 30.7105 155.605 30.0378 155.605 29.2728H158.055C158.055 30.5803 158.836 31.234 160.399 31.234C160.979 31.234 161.432 31.1174 161.758 30.8841C162.083 30.6454 162.246 30.3145 162.246 29.8913Z" fill="white"/>
<rect width="63.6364" height="25" transform="translate(172.879 15)" fill="#353236"/>
<path d="M193.05 33H190.608V27.9219H185.848V33H183.406V21.151H185.848V25.9525H190.608V21.151H193.05V33ZM203.152 27.8649H198.465V31.0387H203.966V33H196.024V21.151H203.95V23.1286H198.465V25.9525H203.152V27.8649ZM212.921 30.5586H208.641L207.827 33H205.231L209.642 21.151H211.904L216.339 33H213.743L212.921 30.5586ZM209.3 28.5811H212.262L210.773 24.1458L209.3 28.5811ZM226.222 23.1286H222.593V33H220.151V23.1286H216.57V21.151H226.222V23.1286Z" fill="white"/>
<path fill-rule="evenodd" clip-rule="evenodd" d="M336.257 26.1716C336.257 28.6569 334.243 30.6716 331.757 30.6716C329.272 30.6716 327.257 28.6569 327.257 26.1716C327.257 23.6863 329.272 21.6716 331.757 21.6716C334.243 21.6716 336.257 23.6863 336.257 26.1716ZM334.987 31.2293C334.054 31.8258 332.946 32.1716 331.757 32.1716C328.444 32.1716 325.757 29.4853 325.757 26.1716C325.757 22.8579 328.444 20.1716 331.757 20.1716C335.071 20.1716 337.757 22.8579 337.757 26.1716C337.757 27.5736 337.276 28.8634 336.471 29.8848L340 33.4142L338.586 34.8284L334.987 31.2293Z" fill="black"/>
<rect y="55" width="340" height="1" fill="#EDEDED"/>
</svg>
