<svg width="740" height="56" viewBox="0 0 740 56" fill="none" xmlns="http://www.w3.org/2000/svg">
<rect width="740" height="56" fill="white"/>
<rect width="63.6364" height="25" transform="translate(0 15)" fill="#E60001"/>
<path d="M18.2692 33H15.8278L11.0752 25.2038V33H8.63375V21.151H11.0752L15.8359 28.9635V21.151H18.2692V33ZM28.3636 27.8649H23.6761V31.0387H29.1774V33H21.2347V21.151H29.1611V23.1286H23.6761V25.9525H28.3636V27.8649ZM40.6715 29.582L42.2666 21.151H44.6998L42.0712 33H39.6136L37.6849 25.0736L35.7561 33H33.2985L30.6699 21.151H33.1031L34.7063 29.5658L36.6595 21.151H38.7265L40.6715 29.582ZM53.0039 29.8913C53.0039 29.4301 52.8411 29.0775 52.5156 28.8333C52.1901 28.5838 51.6041 28.3234 50.7578 28.0521C49.9114 27.7754 49.2414 27.5041 48.7477 27.2383C47.4022 26.5113 46.7295 25.532 46.7295 24.3005C46.7295 23.6603 46.9085 23.0906 47.2666 22.5915C47.6301 22.0869 48.1482 21.6936 48.8209 21.4115C49.4991 21.1293 50.2586 20.9883 51.0996 20.9883C51.9459 20.9883 52.7 21.1429 53.3619 21.4521C54.0238 21.756 54.5365 22.1873 54.9 22.7461C55.2689 23.3049 55.4534 23.9397 55.4534 24.6504H53.012C53.012 24.1079 52.8411 23.6874 52.4993 23.389C52.1575 23.0852 51.6774 22.9333 51.0589 22.9333C50.4621 22.9333 49.9982 23.0608 49.6673 23.3158C49.3363 23.5653 49.1709 23.8963 49.1709 24.3086C49.1709 24.6938 49.3635 25.0166 49.7487 25.277C50.1393 25.5374 50.7117 25.7816 51.4658 26.0094C52.8547 26.4272 53.8665 26.9453 54.5013 27.5638C55.136 28.1823 55.4534 28.9527 55.4534 29.875C55.4534 30.9004 55.0655 31.7061 54.2897 32.292C53.5138 32.8725 52.4695 33.1628 51.1565 33.1628C50.2451 33.1628 49.415 32.9973 48.6663 32.6663C47.9176 32.33 47.3452 31.8715 46.9492 31.291C46.5586 30.7105 46.3632 30.0378 46.3632 29.2728H48.8128C48.8128 30.5803 49.594 31.234 51.1565 31.234C51.737 31.234 52.1901 31.1174 52.5156 30.8841C52.8411 30.6454 53.0039 30.3145 53.0039 29.8913Z" fill="white"/>
<rect width="63.6364" height="25" transform="translate(63.6364 15)" fill="#353236"/>
<path d="M83.8076 33H81.3662V27.9219H76.6054V33H74.164V21.151H76.6054V25.9525H81.3662V21.151H83.8076V33ZM93.9101 27.8649H89.2226V31.0387H94.7239V33H86.7812V21.151H94.7076V23.1286H89.2226V25.9525H93.9101V27.8649ZM103.679 30.5586H99.3984L98.5846 33H95.9886L100.399 21.151H102.662L107.097 33H104.501L103.679 30.5586ZM100.058 28.5811H103.02L101.531 24.1458L100.058 28.5811ZM116.98 23.1286H113.35V33H110.909V23.1286H107.328V21.151H116.98V23.1286Z" fill="white"/>
<path d="M176.805 32.5H175.485L170.475 24.8301V32.5H169.155V22.5469H170.475L175.499 30.251V22.5469H176.805V32.5ZM183.504 32.5C183.431 32.3542 183.372 32.0944 183.326 31.7207C182.738 32.3314 182.036 32.6367 181.221 32.6367C180.492 32.6367 179.892 32.4316 179.423 32.0215C178.958 31.6068 178.726 31.0827 178.726 30.4492C178.726 29.679 179.017 29.082 179.601 28.6582C180.188 28.2298 181.013 28.0156 182.075 28.0156H183.306V27.4346C183.306 26.9925 183.174 26.6416 182.909 26.3818C182.645 26.1175 182.255 25.9854 181.74 25.9854C181.289 25.9854 180.911 26.0993 180.605 26.3271C180.3 26.555 180.147 26.8307 180.147 27.1543H178.876C178.876 26.7852 179.006 26.4297 179.266 26.0879C179.53 25.7415 179.885 25.4681 180.332 25.2676C180.783 25.0671 181.278 24.9668 181.815 24.9668C182.668 24.9668 183.335 25.181 183.818 25.6094C184.301 26.0332 184.552 26.6188 184.57 27.3662V30.7705C184.57 31.4495 184.657 31.9896 184.83 32.3906V32.5H183.504ZM181.405 31.5361C181.802 31.5361 182.178 31.4336 182.533 31.2285C182.889 31.0234 183.146 30.7568 183.306 30.4287V28.9111H182.314C180.765 28.9111 179.99 29.3646 179.99 30.2715C179.99 30.668 180.122 30.9779 180.387 31.2012C180.651 31.4245 180.991 31.5361 181.405 31.5361ZM188.269 23.3125V25.1035H189.649V26.0811H188.269V30.668C188.269 30.9642 188.33 31.1875 188.453 31.3379C188.576 31.4837 188.786 31.5566 189.082 31.5566C189.228 31.5566 189.428 31.5293 189.684 31.4746V32.5C189.351 32.5911 189.027 32.6367 188.713 32.6367C188.148 32.6367 187.722 32.4658 187.435 32.124C187.147 31.7822 187.004 31.2969 187.004 30.668V26.0811H185.657V25.1035H187.004V23.3125H188.269ZM192.507 32.5H191.242V25.1035H192.507V32.5ZM191.14 23.1416C191.14 22.9365 191.201 22.7633 191.324 22.6221C191.452 22.4808 191.639 22.4102 191.885 22.4102C192.131 22.4102 192.318 22.4808 192.445 22.6221C192.573 22.7633 192.637 22.9365 192.637 23.1416C192.637 23.3467 192.573 23.5176 192.445 23.6543C192.318 23.791 192.131 23.8594 191.885 23.8594C191.639 23.8594 191.452 23.791 191.324 23.6543C191.201 23.5176 191.14 23.3467 191.14 23.1416ZM194.202 28.7334C194.202 28.0088 194.343 27.3571 194.626 26.7783C194.913 26.1995 195.31 25.7529 195.815 25.4385C196.326 25.124 196.907 24.9668 197.559 24.9668C198.566 24.9668 199.379 25.3154 199.999 26.0127C200.623 26.71 200.936 27.6374 200.936 28.7949V28.8838C200.936 29.6038 200.797 30.251 200.519 30.8252C200.245 31.3949 199.851 31.8392 199.336 32.1582C198.826 32.4772 198.238 32.6367 197.572 32.6367C196.57 32.6367 195.756 32.2881 195.132 31.5908C194.512 30.8936 194.202 29.9707 194.202 28.8223V28.7334ZM195.474 28.8838C195.474 29.7041 195.663 30.3626 196.041 30.8594C196.424 31.3561 196.934 31.6045 197.572 31.6045C198.215 31.6045 198.725 31.3538 199.104 30.8525C199.482 30.3467 199.671 29.6403 199.671 28.7334C199.671 27.9222 199.477 27.266 199.09 26.7646C198.707 26.2588 198.197 26.0059 197.559 26.0059C196.934 26.0059 196.431 26.2542 196.048 26.751C195.665 27.2477 195.474 27.9587 195.474 28.8838ZM203.718 25.1035L203.759 26.0332C204.324 25.3223 205.062 24.9668 205.974 24.9668C207.537 24.9668 208.325 25.8486 208.339 27.6123V32.5H207.074V27.6055C207.07 27.0723 206.947 26.6781 206.705 26.4229C206.468 26.1676 206.097 26.04 205.591 26.04C205.181 26.04 204.821 26.1494 204.511 26.3682C204.201 26.5869 203.959 26.874 203.786 27.2295V32.5H202.521V25.1035H203.718ZM214.812 32.5C214.74 32.3542 214.68 32.0944 214.635 31.7207C214.047 32.3314 213.345 32.6367 212.529 32.6367C211.8 32.6367 211.201 32.4316 210.731 32.0215C210.267 31.6068 210.034 31.0827 210.034 30.4492C210.034 29.679 210.326 29.082 210.909 28.6582C211.497 28.2298 212.322 28.0156 213.384 28.0156H214.614V27.4346C214.614 26.9925 214.482 26.6416 214.218 26.3818C213.953 26.1175 213.564 25.9854 213.049 25.9854C212.598 25.9854 212.219 26.0993 211.914 26.3271C211.609 26.555 211.456 26.8307 211.456 27.1543H210.185C210.185 26.7852 210.314 26.4297 210.574 26.0879C210.839 25.7415 211.194 25.4681 211.641 25.2676C212.092 25.0671 212.586 24.9668 213.124 24.9668C213.976 24.9668 214.644 25.181 215.127 25.6094C215.61 26.0332 215.861 26.6188 215.879 27.3662V30.7705C215.879 31.4495 215.965 31.9896 216.139 32.3906V32.5H214.812ZM212.714 31.5361C213.11 31.5361 213.486 31.4336 213.842 31.2285C214.197 31.0234 214.455 30.7568 214.614 30.4287V28.9111H213.623C212.074 28.9111 211.299 29.3646 211.299 30.2715C211.299 30.668 211.431 30.9779 211.695 31.2012C211.96 31.4245 212.299 31.5361 212.714 31.5361ZM219.235 32.5H217.971V22H219.235V32.5Z" fill="black"/>
<rect x="231" y="16.5" width="1" height="22" fill="#EDEDED"/>
<path d="M245.302 29.3623L245.493 30.6748L245.773 29.4922L247.742 22.5469H248.85L250.771 29.4922L251.044 30.6953L251.256 29.3555L252.801 22.5469H254.12L251.707 32.5H250.511L248.46 25.2471L248.303 24.4883L248.146 25.2471L246.02 32.5H244.823L242.417 22.5469H243.729L245.302 29.3623ZM254.831 28.7334C254.831 28.0088 254.972 27.3571 255.255 26.7783C255.542 26.1995 255.938 25.7529 256.444 25.4385C256.955 25.124 257.536 24.9668 258.188 24.9668C259.195 24.9668 260.008 25.3154 260.628 26.0127C261.252 26.71 261.564 27.6374 261.564 28.7949V28.8838C261.564 29.6038 261.425 30.251 261.147 30.8252C260.874 31.3949 260.48 31.8392 259.965 32.1582C259.454 32.4772 258.867 32.6367 258.201 32.6367C257.199 32.6367 256.385 32.2881 255.761 31.5908C255.141 30.8936 254.831 29.9707 254.831 28.8223V28.7334ZM256.103 28.8838C256.103 29.7041 256.292 30.3626 256.67 30.8594C257.053 31.3561 257.563 31.6045 258.201 31.6045C258.844 31.6045 259.354 31.3538 259.732 30.8525C260.111 30.3467 260.3 29.6403 260.3 28.7334C260.3 27.9222 260.106 27.266 259.719 26.7646C259.336 26.2588 258.826 26.0059 258.188 26.0059C257.563 26.0059 257.06 26.2542 256.677 26.751C256.294 27.2477 256.103 27.9587 256.103 28.8838ZM266.726 26.2383C266.534 26.2064 266.327 26.1904 266.104 26.1904C265.274 26.1904 264.711 26.5436 264.415 27.25V32.5H263.15V25.1035H264.381L264.401 25.958C264.816 25.2972 265.404 24.9668 266.165 24.9668C266.411 24.9668 266.598 24.9987 266.726 25.0625V26.2383ZM269.269 32.5H268.004V22H269.269V32.5ZM270.991 28.7402C270.991 27.6055 271.26 26.694 271.798 26.0059C272.336 25.3132 273.04 24.9668 273.91 24.9668C274.776 24.9668 275.462 25.263 275.968 25.8555V22H277.232V32.5H276.07L276.009 31.707C275.503 32.3268 274.799 32.6367 273.896 32.6367C273.04 32.6367 272.34 32.2858 271.798 31.584C271.26 30.8822 270.991 29.9661 270.991 28.8359V28.7402ZM272.256 28.8838C272.256 29.7223 272.429 30.3786 272.775 30.8525C273.122 31.3265 273.6 31.5635 274.211 31.5635C275.013 31.5635 275.599 31.2035 275.968 30.4834V27.0859C275.59 26.3887 275.008 26.04 274.225 26.04C273.605 26.04 273.122 26.2793 272.775 26.7578C272.429 27.2363 272.256 27.945 272.256 28.8838Z" fill="black"/>
<rect x="289" y="16.5" width="1" height="22" fill="#EDEDED"/>
<path d="M302.475 31.4268H307.191V32.5H301.155V22.5469H302.475V31.4268ZM309.864 32.5H308.6V25.1035H309.864V32.5ZM308.497 23.1416C308.497 22.9365 308.559 22.7633 308.682 22.6221C308.809 22.4808 308.996 22.4102 309.242 22.4102C309.488 22.4102 309.675 22.4808 309.803 22.6221C309.93 22.7633 309.994 22.9365 309.994 23.1416C309.994 23.3467 309.93 23.5176 309.803 23.6543C309.675 23.791 309.488 23.8594 309.242 23.8594C308.996 23.8594 308.809 23.791 308.682 23.6543C308.559 23.5176 308.497 23.3467 308.497 23.1416ZM312.517 32.5V26.0811H311.348V25.1035H312.517V24.3447C312.517 23.5518 312.729 22.9388 313.152 22.5059C313.576 22.0729 314.175 21.8564 314.95 21.8564C315.242 21.8564 315.531 21.8952 315.818 21.9727L315.75 22.998C315.536 22.957 315.308 22.9365 315.066 22.9365C314.656 22.9365 314.34 23.0573 314.116 23.2988C313.893 23.5358 313.781 23.8776 313.781 24.3242V25.1035H315.36V26.0811H313.781V32.5H312.517ZM319.667 32.6367C318.664 32.6367 317.849 32.3086 317.22 31.6523C316.591 30.9915 316.276 30.1097 316.276 29.0068V28.7744C316.276 28.0407 316.415 27.3867 316.693 26.8125C316.976 26.2337 317.368 25.7826 317.869 25.459C318.375 25.1309 318.922 24.9668 319.51 24.9668C320.471 24.9668 321.219 25.2835 321.752 25.917C322.285 26.5505 322.552 27.4574 322.552 28.6377V29.1641H317.541C317.559 29.8932 317.771 30.4834 318.177 30.9346C318.587 31.3812 319.106 31.6045 319.735 31.6045C320.182 31.6045 320.56 31.5133 320.87 31.3311C321.18 31.1488 321.451 30.9072 321.684 30.6064L322.456 31.208C321.836 32.1605 320.907 32.6367 319.667 32.6367ZM319.51 26.0059C318.999 26.0059 318.571 26.1927 318.225 26.5664C317.878 26.9355 317.664 27.4551 317.582 28.125H321.287V28.0293C321.251 27.3867 321.077 26.89 320.768 26.5391C320.458 26.1836 320.038 26.0059 319.51 26.0059ZM328.328 30.5381C328.328 30.1963 328.198 29.932 327.938 29.7451C327.683 29.5537 327.234 29.3896 326.592 29.2529C325.954 29.1162 325.446 28.9521 325.067 28.7607C324.694 28.5693 324.416 28.3415 324.233 28.0771C324.056 27.8128 323.967 27.4984 323.967 27.1338C323.967 26.5277 324.222 26.015 324.732 25.5957C325.247 25.1764 325.904 24.9668 326.701 24.9668C327.54 24.9668 328.219 25.1833 328.738 25.6162C329.262 26.0492 329.524 26.6029 329.524 27.2773H328.253C328.253 26.931 328.105 26.6325 327.809 26.3818C327.517 26.1312 327.148 26.0059 326.701 26.0059C326.241 26.0059 325.881 26.1061 325.621 26.3066C325.361 26.5072 325.231 26.7692 325.231 27.0928C325.231 27.3981 325.352 27.6283 325.594 27.7832C325.835 27.9382 326.271 28.0863 326.899 28.2275C327.533 28.3688 328.046 28.5374 328.438 28.7334C328.829 28.9294 329.119 29.1663 329.306 29.4443C329.497 29.7178 329.593 30.0527 329.593 30.4492C329.593 31.11 329.328 31.641 328.8 32.042C328.271 32.4385 327.585 32.6367 326.742 32.6367C326.15 32.6367 325.626 32.5319 325.17 32.3223C324.714 32.1126 324.356 31.821 324.097 31.4473C323.841 31.069 323.714 30.6611 323.714 30.2236H324.979C325.001 30.6475 325.17 30.9847 325.484 31.2354C325.803 31.4814 326.223 31.6045 326.742 31.6045C327.221 31.6045 327.604 31.5088 327.891 31.3174C328.182 31.1214 328.328 30.8617 328.328 30.5381ZM332.956 23.3125V25.1035H334.337V26.0811H332.956V30.668C332.956 30.9642 333.018 31.1875 333.141 31.3379C333.264 31.4837 333.473 31.5566 333.77 31.5566C333.915 31.5566 334.116 31.5293 334.371 31.4746V32.5C334.038 32.5911 333.715 32.6367 333.4 32.6367C332.835 32.6367 332.409 32.4658 332.122 32.124C331.835 31.7822 331.691 31.2969 331.691 30.668V26.0811H330.345V25.1035H331.691V23.3125H332.956ZM338.24 30.6475L339.963 25.1035H341.316L338.343 33.6416C337.882 34.8721 337.151 35.4873 336.148 35.4873L335.909 35.4668L335.438 35.3779V34.3525L335.779 34.3799C336.208 34.3799 336.54 34.2933 336.777 34.1201C337.019 33.9469 337.217 33.6302 337.372 33.1699L337.652 32.418L335.014 25.1035H336.395L338.24 30.6475ZM343.825 32.5H342.561V22H343.825V32.5ZM348.925 32.6367C347.922 32.6367 347.106 32.3086 346.478 31.6523C345.849 30.9915 345.534 30.1097 345.534 29.0068V28.7744C345.534 28.0407 345.673 27.3867 345.951 26.8125C346.234 26.2337 346.626 25.7826 347.127 25.459C347.633 25.1309 348.18 24.9668 348.768 24.9668C349.729 24.9668 350.477 25.2835 351.01 25.917C351.543 26.5505 351.81 27.4574 351.81 28.6377V29.1641H346.799C346.817 29.8932 347.029 30.4834 347.435 30.9346C347.845 31.3812 348.364 31.6045 348.993 31.6045C349.44 31.6045 349.818 31.5133 350.128 31.3311C350.438 31.1488 350.709 30.9072 350.941 30.6064L351.714 31.208C351.094 32.1605 350.164 32.6367 348.925 32.6367ZM348.768 26.0059C348.257 26.0059 347.829 26.1927 347.482 26.5664C347.136 26.9355 346.922 27.4551 346.84 28.125H350.545V28.0293C350.508 27.3867 350.335 26.89 350.025 26.5391C349.715 26.1836 349.296 26.0059 348.768 26.0059Z" fill="black"/>
<rect x="363" y="16.5" width="1" height="22" fill="#EDEDED"/>
<path d="M382.032 23.627H378.833V32.5H377.527V23.627H374.335V22.5469H382.032V23.627ZM386.366 26.2383C386.175 26.2064 385.967 26.1904 385.744 26.1904C384.915 26.1904 384.352 26.5436 384.056 27.25V32.5H382.791V25.1035H384.021L384.042 25.958C384.457 25.2972 385.045 24.9668 385.806 24.9668C386.052 24.9668 386.239 24.9987 386.366 25.0625V26.2383ZM391.828 32.5C391.755 32.3542 391.696 32.0944 391.65 31.7207C391.062 32.3314 390.361 32.6367 389.545 32.6367C388.816 32.6367 388.216 32.4316 387.747 32.0215C387.282 31.6068 387.05 31.0827 387.05 30.4492C387.05 29.679 387.341 29.082 387.925 28.6582C388.513 28.2298 389.338 28.0156 390.399 28.0156H391.63V27.4346C391.63 26.9925 391.498 26.6416 391.233 26.3818C390.969 26.1175 390.579 25.9854 390.064 25.9854C389.613 25.9854 389.235 26.0993 388.93 26.3271C388.624 26.555 388.472 26.8307 388.472 27.1543H387.2C387.2 26.7852 387.33 26.4297 387.59 26.0879C387.854 25.7415 388.21 25.4681 388.656 25.2676C389.107 25.0671 389.602 24.9668 390.14 24.9668C390.992 24.9668 391.66 25.181 392.143 25.6094C392.626 26.0332 392.876 26.6188 392.895 27.3662V30.7705C392.895 31.4495 392.981 31.9896 393.154 32.3906V32.5H391.828ZM389.729 31.5361C390.126 31.5361 390.502 31.4336 390.857 31.2285C391.213 31.0234 391.47 30.7568 391.63 30.4287V28.9111H390.639C389.089 28.9111 388.314 29.3646 388.314 30.2715C388.314 30.668 388.447 30.9779 388.711 31.2012C388.975 31.4245 389.315 31.5361 389.729 31.5361ZM397.208 30.7842L399.04 25.1035H400.332L397.68 32.5H396.716L394.036 25.1035H395.328L397.208 30.7842ZM404.522 32.6367C403.52 32.6367 402.704 32.3086 402.075 31.6523C401.446 30.9915 401.132 30.1097 401.132 29.0068V28.7744C401.132 28.0407 401.271 27.3867 401.549 26.8125C401.831 26.2337 402.223 25.7826 402.725 25.459C403.23 25.1309 403.777 24.9668 404.365 24.9668C405.327 24.9668 406.074 25.2835 406.607 25.917C407.141 26.5505 407.407 27.4574 407.407 28.6377V29.1641H402.396C402.415 29.8932 402.627 30.4834 403.032 30.9346C403.442 31.3812 403.962 31.6045 404.591 31.6045C405.037 31.6045 405.416 31.5133 405.726 31.3311C406.035 31.1488 406.307 30.9072 406.539 30.6064L407.312 31.208C406.692 32.1605 405.762 32.6367 404.522 32.6367ZM404.365 26.0059C403.855 26.0059 403.426 26.1927 403.08 26.5664C402.734 26.9355 402.52 27.4551 402.438 28.125H406.143V28.0293C406.106 27.3867 405.933 26.89 405.623 26.5391C405.313 26.1836 404.894 26.0059 404.365 26.0059ZM410.251 32.5H408.986V22H410.251V32.5Z" fill="black"/>
<rect x="422" y="16.5" width="1" height="22" fill="#EDEDED"/>
<path d="M439.781 27.8994H435.468V31.4268H440.479V32.5H434.155V22.5469H440.41V23.627H435.468V26.8262H439.781V27.8994ZM443.11 25.1035L443.151 26.0332C443.716 25.3223 444.455 24.9668 445.366 24.9668C446.929 24.9668 447.718 25.8486 447.731 27.6123V32.5H446.467V27.6055C446.462 27.0723 446.339 26.6781 446.098 26.4229C445.861 26.1676 445.489 26.04 444.983 26.04C444.573 26.04 444.213 26.1494 443.903 26.3682C443.593 26.5869 443.352 26.874 443.179 27.2295V32.5H441.914V25.1035H443.11ZM451.354 23.3125V25.1035H452.735V26.0811H451.354V30.668C451.354 30.9642 451.416 31.1875 451.539 31.3379C451.662 31.4837 451.872 31.5566 452.168 31.5566C452.314 31.5566 452.514 31.5293 452.77 31.4746V32.5C452.437 32.5911 452.113 32.6367 451.799 32.6367C451.234 32.6367 450.808 32.4658 450.521 32.124C450.233 31.7822 450.09 31.2969 450.09 30.668V26.0811H448.743V25.1035H450.09V23.3125H451.354ZM457.288 32.6367C456.285 32.6367 455.47 32.3086 454.841 31.6523C454.212 30.9915 453.897 30.1097 453.897 29.0068V28.7744C453.897 28.0407 454.036 27.3867 454.314 26.8125C454.597 26.2337 454.989 25.7826 455.49 25.459C455.996 25.1309 456.543 24.9668 457.131 24.9668C458.092 24.9668 458.84 25.2835 459.373 25.917C459.906 26.5505 460.173 27.4574 460.173 28.6377V29.1641H455.162C455.18 29.8932 455.392 30.4834 455.798 30.9346C456.208 31.3812 456.728 31.6045 457.356 31.6045C457.803 31.6045 458.181 31.5133 458.491 31.3311C458.801 31.1488 459.072 30.9072 459.305 30.6064L460.077 31.208C459.457 32.1605 458.528 32.6367 457.288 32.6367ZM457.131 26.0059C456.62 26.0059 456.192 26.1927 455.846 26.5664C455.499 26.9355 455.285 27.4551 455.203 28.125H458.908V28.0293C458.872 27.3867 458.699 26.89 458.389 26.5391C458.079 26.1836 457.66 26.0059 457.131 26.0059ZM465.218 26.2383C465.026 26.2064 464.819 26.1904 464.596 26.1904C463.766 26.1904 463.203 26.5436 462.907 27.25V32.5H461.643V25.1035H462.873L462.894 25.958C463.308 25.2972 463.896 24.9668 464.657 24.9668C464.903 24.9668 465.09 24.9987 465.218 25.0625V26.2383ZM468.444 23.3125V25.1035H469.825V26.0811H468.444V30.668C468.444 30.9642 468.506 31.1875 468.629 31.3379C468.752 31.4837 468.962 31.5566 469.258 31.5566C469.404 31.5566 469.604 31.5293 469.859 31.4746V32.5C469.527 32.5911 469.203 32.6367 468.889 32.6367C468.324 32.6367 467.897 32.4658 467.61 32.124C467.323 31.7822 467.18 31.2969 467.18 30.668V26.0811H465.833V25.1035H467.18V23.3125H468.444ZM475.875 32.5C475.802 32.3542 475.743 32.0944 475.697 31.7207C475.109 32.3314 474.408 32.6367 473.592 32.6367C472.863 32.6367 472.263 32.4316 471.794 32.0215C471.329 31.6068 471.097 31.0827 471.097 30.4492C471.097 29.679 471.388 29.082 471.972 28.6582C472.56 28.2298 473.384 28.0156 474.446 28.0156H475.677V27.4346C475.677 26.9925 475.545 26.6416 475.28 26.3818C475.016 26.1175 474.626 25.9854 474.111 25.9854C473.66 25.9854 473.282 26.0993 472.977 26.3271C472.671 26.555 472.519 26.8307 472.519 27.1543H471.247C471.247 26.7852 471.377 26.4297 471.637 26.0879C471.901 25.7415 472.257 25.4681 472.703 25.2676C473.154 25.0671 473.649 24.9668 474.187 24.9668C475.039 24.9668 475.706 25.181 476.189 25.6094C476.673 26.0332 476.923 26.6188 476.941 27.3662V30.7705C476.941 31.4495 477.028 31.9896 477.201 32.3906V32.5H475.875ZM473.776 31.5361C474.173 31.5361 474.549 31.4336 474.904 31.2285C475.26 31.0234 475.517 30.7568 475.677 30.4287V28.9111H474.686C473.136 28.9111 472.361 29.3646 472.361 30.2715C472.361 30.668 472.493 30.9779 472.758 31.2012C473.022 31.4245 473.362 31.5361 473.776 31.5361ZM480.298 32.5H479.033V25.1035H480.298V32.5ZM478.931 23.1416C478.931 22.9365 478.992 22.7633 479.115 22.6221C479.243 22.4808 479.43 22.4102 479.676 22.4102C479.922 22.4102 480.109 22.4808 480.236 22.6221C480.364 22.7633 480.428 22.9365 480.428 23.1416C480.428 23.3467 480.364 23.5176 480.236 23.6543C480.109 23.791 479.922 23.8594 479.676 23.8594C479.43 23.8594 479.243 23.791 479.115 23.6543C478.992 23.5176 478.931 23.3467 478.931 23.1416ZM483.524 25.1035L483.565 26.0332C484.131 25.3223 484.869 24.9668 485.78 24.9668C487.343 24.9668 488.132 25.8486 488.146 27.6123V32.5H486.881V27.6055C486.876 27.0723 486.753 26.6781 486.512 26.4229C486.275 26.1676 485.903 26.04 485.397 26.04C484.987 26.04 484.627 26.1494 484.317 26.3682C484.007 26.5869 483.766 26.874 483.593 27.2295V32.5H482.328V25.1035H483.524ZM491.242 25.1035L491.276 25.9238C491.819 25.2858 492.55 24.9668 493.471 24.9668C494.505 24.9668 495.209 25.3633 495.583 26.1562C495.829 25.8008 496.148 25.5137 496.54 25.2949C496.937 25.0762 497.404 24.9668 497.941 24.9668C499.564 24.9668 500.389 25.8258 500.416 27.5439V32.5H499.151V27.6191C499.151 27.0905 499.031 26.6963 498.789 26.4365C498.548 26.1722 498.142 26.04 497.572 26.04C497.103 26.04 496.713 26.1813 496.403 26.4639C496.093 26.7419 495.913 27.1178 495.863 27.5918V32.5H494.592V27.6533C494.592 26.5778 494.065 26.04 493.013 26.04C492.183 26.04 491.616 26.3932 491.311 27.0996V32.5H490.046V25.1035H491.242ZM505.399 32.6367C504.397 32.6367 503.581 32.3086 502.952 31.6523C502.323 30.9915 502.009 30.1097 502.009 29.0068V28.7744C502.009 28.0407 502.148 27.3867 502.426 26.8125C502.708 26.2337 503.1 25.7826 503.602 25.459C504.107 25.1309 504.654 24.9668 505.242 24.9668C506.204 24.9668 506.951 25.2835 507.484 25.917C508.018 26.5505 508.284 27.4574 508.284 28.6377V29.1641H503.273C503.292 29.8932 503.504 30.4834 503.909 30.9346C504.319 31.3812 504.839 31.6045 505.468 31.6045C505.914 31.6045 506.293 31.5133 506.603 31.3311C506.912 31.1488 507.184 30.9072 507.416 30.6064L508.188 31.208C507.569 32.1605 506.639 32.6367 505.399 32.6367ZM505.242 26.0059C504.732 26.0059 504.303 26.1927 503.957 26.5664C503.611 26.9355 503.396 27.4551 503.314 28.125H507.02V28.0293C506.983 27.3867 506.81 26.89 506.5 26.5391C506.19 26.1836 505.771 26.0059 505.242 26.0059ZM510.95 25.1035L510.991 26.0332C511.556 25.3223 512.295 24.9668 513.206 24.9668C514.769 24.9668 515.558 25.8486 515.571 27.6123V32.5H514.307V27.6055C514.302 27.0723 514.179 26.6781 513.938 26.4229C513.701 26.1676 513.329 26.04 512.823 26.04C512.413 26.04 512.053 26.1494 511.743 26.3682C511.433 26.5869 511.192 26.874 511.019 27.2295V32.5H509.754V25.1035H510.95ZM519.194 23.3125V25.1035H520.575V26.0811H519.194V30.668C519.194 30.9642 519.256 31.1875 519.379 31.3379C519.502 31.4837 519.712 31.5566 520.008 31.5566C520.154 31.5566 520.354 31.5293 520.609 31.4746V32.5C520.277 32.5911 519.953 32.6367 519.639 32.6367C519.074 32.6367 518.647 32.4658 518.36 32.124C518.073 31.7822 517.93 31.2969 517.93 30.668V26.0811H516.583V25.1035H517.93V23.3125H519.194Z" fill="black"/>
<rect x="532" y="16.5" width="1" height="22" fill="#EDEDED"/>
<path d="M551.032 23.627H547.833V32.5H546.527V23.627H543.335V22.5469H551.032V23.627ZM554.696 32.6367C553.694 32.6367 552.878 32.3086 552.249 31.6523C551.62 30.9915 551.306 30.1097 551.306 29.0068V28.7744C551.306 28.0407 551.445 27.3867 551.723 26.8125C552.005 26.2337 552.397 25.7826 552.898 25.459C553.404 25.1309 553.951 24.9668 554.539 24.9668C555.501 24.9668 556.248 25.2835 556.781 25.917C557.314 26.5505 557.581 27.4574 557.581 28.6377V29.1641H552.57C552.589 29.8932 552.8 30.4834 553.206 30.9346C553.616 31.3812 554.136 31.6045 554.765 31.6045C555.211 31.6045 555.59 31.5133 555.899 31.3311C556.209 31.1488 556.48 30.9072 556.713 30.6064L557.485 31.208C556.866 32.1605 555.936 32.6367 554.696 32.6367ZM554.539 26.0059C554.029 26.0059 553.6 26.1927 553.254 26.5664C552.908 26.9355 552.693 27.4551 552.611 28.125H556.316V28.0293C556.28 27.3867 556.107 26.89 555.797 26.5391C555.487 26.1836 555.068 26.0059 554.539 26.0059ZM562.018 31.6045C562.469 31.6045 562.863 31.4678 563.2 31.1943C563.537 30.9209 563.724 30.5791 563.761 30.1689H564.957C564.934 30.5928 564.788 30.9961 564.52 31.3789C564.251 31.7617 563.891 32.0671 563.439 32.2949C562.993 32.5228 562.519 32.6367 562.018 32.6367C561.01 32.6367 560.208 32.3018 559.611 31.6318C559.019 30.9574 558.723 30.0368 558.723 28.8701V28.6582C558.723 27.9382 558.855 27.2979 559.119 26.7373C559.383 26.1768 559.762 25.7415 560.254 25.4316C560.751 25.1217 561.336 24.9668 562.011 24.9668C562.84 24.9668 563.528 25.2152 564.075 25.7119C564.627 26.2087 564.921 26.8535 564.957 27.6465H563.761C563.724 27.168 563.542 26.776 563.214 26.4707C562.89 26.1608 562.489 26.0059 562.011 26.0059C561.368 26.0059 560.869 26.2383 560.514 26.7031C560.163 27.1634 559.987 27.8311 559.987 28.7061V28.9453C559.987 29.7975 560.163 30.4538 560.514 30.9141C560.865 31.3743 561.366 31.6045 562.018 31.6045ZM567.644 25.999C568.204 25.3109 568.933 24.9668 569.831 24.9668C571.394 24.9668 572.183 25.8486 572.196 27.6123V32.5H570.932V27.6055C570.927 27.0723 570.804 26.6781 570.562 26.4229C570.326 26.1676 569.954 26.04 569.448 26.04C569.038 26.04 568.678 26.1494 568.368 26.3682C568.058 26.5869 567.817 26.874 567.644 27.2295V32.5H566.379V22H567.644V25.999ZM575.286 25.1035L575.327 26.0332C575.892 25.3223 576.631 24.9668 577.542 24.9668C579.105 24.9668 579.894 25.8486 579.907 27.6123V32.5H578.643V27.6055C578.638 27.0723 578.515 26.6781 578.273 26.4229C578.036 26.1676 577.665 26.04 577.159 26.04C576.749 26.04 576.389 26.1494 576.079 26.3682C575.769 26.5869 575.528 26.874 575.354 27.2295V32.5H574.09V25.1035H575.286ZM581.479 28.7334C581.479 28.0088 581.621 27.3571 581.903 26.7783C582.19 26.1995 582.587 25.7529 583.093 25.4385C583.603 25.124 584.184 24.9668 584.836 24.9668C585.843 24.9668 586.657 25.3154 587.276 26.0127C587.901 26.71 588.213 27.6374 588.213 28.7949V28.8838C588.213 29.6038 588.074 30.251 587.796 30.8252C587.522 31.3949 587.128 31.8392 586.613 32.1582C586.103 32.4772 585.515 32.6367 584.85 32.6367C583.847 32.6367 583.034 32.2881 582.409 31.5908C581.789 30.8936 581.479 29.9707 581.479 28.8223V28.7334ZM582.751 28.8838C582.751 29.7041 582.94 30.3626 583.318 30.8594C583.701 31.3561 584.212 31.6045 584.85 31.6045C585.492 31.6045 586.003 31.3538 586.381 30.8525C586.759 30.3467 586.948 29.6403 586.948 28.7334C586.948 27.9222 586.755 27.266 586.367 26.7646C585.984 26.2588 585.474 26.0059 584.836 26.0059C584.212 26.0059 583.708 26.2542 583.325 26.751C582.942 27.2477 582.751 27.9587 582.751 28.8838ZM591.173 32.5H589.908V22H591.173V32.5ZM592.868 28.7334C592.868 28.0088 593.009 27.3571 593.292 26.7783C593.579 26.1995 593.976 25.7529 594.481 25.4385C594.992 25.124 595.573 24.9668 596.225 24.9668C597.232 24.9668 598.045 25.3154 598.665 26.0127C599.289 26.71 599.602 27.6374 599.602 28.7949V28.8838C599.602 29.6038 599.463 30.251 599.185 30.8252C598.911 31.3949 598.517 31.8392 598.002 32.1582C597.492 32.4772 596.904 32.6367 596.238 32.6367C595.236 32.6367 594.422 32.2881 593.798 31.5908C593.178 30.8936 592.868 29.9707 592.868 28.8223V28.7334ZM594.14 28.8838C594.14 29.7041 594.329 30.3626 594.707 30.8594C595.09 31.3561 595.6 31.6045 596.238 31.6045C596.881 31.6045 597.391 31.3538 597.77 30.8525C598.148 30.3467 598.337 29.6403 598.337 28.7334C598.337 27.9222 598.143 27.266 597.756 26.7646C597.373 26.2588 596.863 26.0059 596.225 26.0059C595.6 26.0059 595.097 26.2542 594.714 26.751C594.331 27.2477 594.14 27.9587 594.14 28.8838ZM600.887 28.7402C600.887 27.5872 601.153 26.6712 601.687 25.9922C602.22 25.3086 602.926 24.9668 603.806 24.9668C604.708 24.9668 605.412 25.2858 605.918 25.9238L605.979 25.1035H607.135V32.3223C607.135 33.2793 606.85 34.0335 606.28 34.585C605.715 35.1364 604.954 35.4121 603.997 35.4121C603.464 35.4121 602.942 35.2982 602.432 35.0703C601.921 34.8424 601.532 34.5303 601.263 34.1338L601.919 33.375C602.461 34.0449 603.124 34.3799 603.908 34.3799C604.523 34.3799 605.002 34.2067 605.344 33.8604C605.69 33.514 605.863 33.0264 605.863 32.3975V31.7617C605.357 32.3451 604.667 32.6367 603.792 32.6367C602.926 32.6367 602.224 32.2881 601.687 31.5908C601.153 30.8936 600.887 29.9434 600.887 28.7402ZM602.158 28.8838C602.158 29.7178 602.329 30.374 602.671 30.8525C603.013 31.3265 603.491 31.5635 604.106 31.5635C604.904 31.5635 605.49 31.2012 605.863 30.4766V27.0996C605.476 26.3932 604.895 26.04 604.12 26.04C603.505 26.04 603.024 26.2793 602.678 26.7578C602.331 27.2363 602.158 27.945 602.158 28.8838ZM611.469 30.6475L613.191 25.1035H614.545L611.571 33.6416C611.111 34.8721 610.38 35.4873 609.377 35.4873L609.138 35.4668L608.666 35.3779V34.3525L609.008 34.3799C609.436 34.3799 609.769 34.2933 610.006 34.1201C610.247 33.9469 610.446 33.6302 610.601 33.1699L610.881 32.418L608.242 25.1035H609.623L611.469 30.6475Z" fill="black"/>
<rect x="625" y="16.5" width="1" height="22" fill="#EDEDED"/>
<path d="M642.645 28.1045H638.468V32.5H637.155V22.5469H643.321V23.627H638.468V27.0312H642.645V28.1045ZM646.069 32.5H644.805V25.1035H646.069V32.5ZM644.702 23.1416C644.702 22.9365 644.764 22.7633 644.887 22.6221C645.014 22.4808 645.201 22.4102 645.447 22.4102C645.693 22.4102 645.88 22.4808 646.008 22.6221C646.135 22.7633 646.199 22.9365 646.199 23.1416C646.199 23.3467 646.135 23.5176 646.008 23.6543C645.88 23.791 645.693 23.8594 645.447 23.8594C645.201 23.8594 645.014 23.791 644.887 23.6543C644.764 23.5176 644.702 23.3467 644.702 23.1416ZM649.296 25.1035L649.337 26.0332C649.902 25.3223 650.64 24.9668 651.552 24.9668C653.115 24.9668 653.903 25.8486 653.917 27.6123V32.5H652.652V27.6055C652.648 27.0723 652.525 26.6781 652.283 26.4229C652.046 26.1676 651.675 26.04 651.169 26.04C650.759 26.04 650.399 26.1494 650.089 26.3682C649.779 26.5869 649.537 26.874 649.364 27.2295V32.5H648.1V25.1035H649.296ZM660.391 32.5C660.318 32.3542 660.258 32.0944 660.213 31.7207C659.625 32.3314 658.923 32.6367 658.107 32.6367C657.378 32.6367 656.779 32.4316 656.31 32.0215C655.845 31.6068 655.612 31.0827 655.612 30.4492C655.612 29.679 655.904 29.082 656.487 28.6582C657.075 28.2298 657.9 28.0156 658.962 28.0156H660.192V27.4346C660.192 26.9925 660.06 26.6416 659.796 26.3818C659.532 26.1175 659.142 25.9854 658.627 25.9854C658.176 25.9854 657.798 26.0993 657.492 26.3271C657.187 26.555 657.034 26.8307 657.034 27.1543H655.763C655.763 26.7852 655.893 26.4297 656.152 26.0879C656.417 25.7415 656.772 25.4681 657.219 25.2676C657.67 25.0671 658.164 24.9668 658.702 24.9668C659.554 24.9668 660.222 25.181 660.705 25.6094C661.188 26.0332 661.439 26.6188 661.457 27.3662V30.7705C661.457 31.4495 661.544 31.9896 661.717 32.3906V32.5H660.391ZM658.292 31.5361C658.688 31.5361 659.064 31.4336 659.42 31.2285C659.775 31.0234 660.033 30.7568 660.192 30.4287V28.9111H659.201C657.652 28.9111 656.877 29.3646 656.877 30.2715C656.877 30.668 657.009 30.9779 657.273 31.2012C657.538 31.4245 657.877 31.5361 658.292 31.5361ZM664.636 25.1035L664.677 26.0332C665.242 25.3223 665.98 24.9668 666.892 24.9668C668.455 24.9668 669.243 25.8486 669.257 27.6123V32.5H667.992V27.6055C667.988 27.0723 667.865 26.6781 667.623 26.4229C667.386 26.1676 667.015 26.04 666.509 26.04C666.099 26.04 665.739 26.1494 665.429 26.3682C665.119 26.5869 664.877 26.874 664.704 27.2295V32.5H663.439V25.1035H664.636ZM674.131 31.6045C674.582 31.6045 674.976 31.4678 675.313 31.1943C675.651 30.9209 675.838 30.5791 675.874 30.1689H677.07C677.048 30.5928 676.902 30.9961 676.633 31.3789C676.364 31.7617 676.004 32.0671 675.553 32.2949C675.106 32.5228 674.632 32.6367 674.131 32.6367C673.124 32.6367 672.322 32.3018 671.725 31.6318C671.132 30.9574 670.836 30.0368 670.836 28.8701V28.6582C670.836 27.9382 670.968 27.2979 671.232 26.7373C671.497 26.1768 671.875 25.7415 672.367 25.4316C672.864 25.1217 673.45 24.9668 674.124 24.9668C674.953 24.9668 675.642 25.2152 676.188 25.7119C676.74 26.2087 677.034 26.8535 677.07 27.6465H675.874C675.838 27.168 675.655 26.776 675.327 26.4707C675.004 26.1608 674.603 26.0059 674.124 26.0059C673.481 26.0059 672.982 26.2383 672.627 26.7031C672.276 27.1634 672.101 27.8311 672.101 28.7061V28.9453C672.101 29.7975 672.276 30.4538 672.627 30.9141C672.978 31.3743 673.479 31.6045 674.131 31.6045ZM681.562 32.6367C680.559 32.6367 679.743 32.3086 679.114 31.6523C678.485 30.9915 678.171 30.1097 678.171 29.0068V28.7744C678.171 28.0407 678.31 27.3867 678.588 26.8125C678.87 26.2337 679.262 25.7826 679.764 25.459C680.27 25.1309 680.816 24.9668 681.404 24.9668C682.366 24.9668 683.113 25.2835 683.646 25.917C684.18 26.5505 684.446 27.4574 684.446 28.6377V29.1641H679.436C679.454 29.8932 679.666 30.4834 680.071 30.9346C680.481 31.3812 681.001 31.6045 681.63 31.6045C682.076 31.6045 682.455 31.5133 682.765 31.3311C683.075 31.1488 683.346 30.9072 683.578 30.6064L684.351 31.208C683.731 32.1605 682.801 32.6367 681.562 32.6367ZM681.404 26.0059C680.894 26.0059 680.465 26.1927 680.119 26.5664C679.773 26.9355 679.559 27.4551 679.477 28.125H683.182V28.0293C683.145 27.3867 682.972 26.89 682.662 26.5391C682.352 26.1836 681.933 26.0059 681.404 26.0059Z" fill="black"/>
<rect x="695" y="16.5" width="1" height="22" fill="#EDEDED"/>
<path d="M710.088 28.0635C708.962 27.7399 708.142 27.3434 707.627 26.874C707.117 26.4001 706.861 25.8167 706.861 25.124C706.861 24.3402 707.174 23.693 707.798 23.1826C708.427 22.6676 709.243 22.4102 710.245 22.4102C710.929 22.4102 711.537 22.5423 712.07 22.8066C712.608 23.071 713.023 23.4355 713.314 23.9004C713.611 24.3652 713.759 24.8734 713.759 25.4248H712.439C712.439 24.8232 712.248 24.3516 711.865 24.0098C711.482 23.6634 710.942 23.4902 710.245 23.4902C709.598 23.4902 709.092 23.6338 708.728 23.9209C708.368 24.2035 708.188 24.5977 708.188 25.1035C708.188 25.5091 708.358 25.8532 708.7 26.1357C709.047 26.4137 709.632 26.6689 710.457 26.9014C711.286 27.1338 711.934 27.3913 712.398 27.6738C712.868 27.9518 713.214 28.2777 713.438 28.6514C713.665 29.0251 713.779 29.4648 713.779 29.9707C713.779 30.7773 713.465 31.4245 712.836 31.9121C712.207 32.3952 711.366 32.6367 710.313 32.6367C709.63 32.6367 708.992 32.5068 708.399 32.2471C707.807 31.9827 707.349 31.6227 707.025 31.167C706.706 30.7113 706.547 30.194 706.547 29.6152H707.866C707.866 30.2168 708.087 30.693 708.529 31.0439C708.976 31.3903 709.571 31.5635 710.313 31.5635C711.006 31.5635 711.537 31.4222 711.906 31.1396C712.275 30.8571 712.46 30.472 712.46 29.9844C712.46 29.4967 712.289 29.1208 711.947 28.8564C711.605 28.5876 710.986 28.3232 710.088 28.0635ZM721.518 28.8838C721.518 30.0094 721.26 30.9163 720.745 31.6045C720.23 32.2926 719.533 32.6367 718.653 32.6367C717.756 32.6367 717.049 32.3519 716.534 31.7822V35.3438H715.27V25.1035H716.425L716.486 25.9238C717.001 25.2858 717.717 24.9668 718.633 24.9668C719.521 24.9668 720.223 25.3018 720.738 25.9717C721.258 26.6416 721.518 27.5736 721.518 28.7676V28.8838ZM720.253 28.7402C720.253 27.9062 720.075 27.2477 719.72 26.7646C719.364 26.2816 718.877 26.04 718.257 26.04C717.491 26.04 716.917 26.3796 716.534 27.0586V30.5928C716.912 31.2673 717.491 31.6045 718.271 31.6045C718.877 31.6045 719.357 31.3652 719.713 30.8867C720.073 30.4036 720.253 29.6882 720.253 28.7402ZM722.796 28.7334C722.796 28.0088 722.937 27.3571 723.22 26.7783C723.507 26.1995 723.903 25.7529 724.409 25.4385C724.92 25.124 725.501 24.9668 726.152 24.9668C727.16 24.9668 727.973 25.3154 728.593 26.0127C729.217 26.71 729.529 27.6374 729.529 28.7949V28.8838C729.529 29.6038 729.39 30.251 729.112 30.8252C728.839 31.3949 728.445 31.8392 727.93 32.1582C727.419 32.4772 726.831 32.6367 726.166 32.6367C725.163 32.6367 724.35 32.2881 723.726 31.5908C723.106 30.8936 722.796 29.9707 722.796 28.8223V28.7334ZM724.067 28.8838C724.067 29.7041 724.257 30.3626 724.635 30.8594C725.018 31.3561 725.528 31.6045 726.166 31.6045C726.809 31.6045 727.319 31.3538 727.697 30.8525C728.076 30.3467 728.265 29.6403 728.265 28.7334C728.265 27.9222 728.071 27.266 727.684 26.7646C727.301 26.2588 726.79 26.0059 726.152 26.0059C725.528 26.0059 725.024 26.2542 724.642 26.751C724.259 27.2477 724.067 27.9587 724.067 28.8838ZM734.69 26.2383C734.499 26.2064 734.292 26.1904 734.068 26.1904C733.239 26.1904 732.676 26.5436 732.38 27.25V32.5H731.115V25.1035H732.346L732.366 25.958C732.781 25.2972 733.369 24.9668 734.13 24.9668C734.376 24.9668 734.563 24.9987 734.69 25.0625V26.2383ZM737.917 23.3125V25.1035H739.298V26.0811H737.917V30.668C737.917 30.9642 737.979 31.1875 738.102 31.3379C738.225 31.4837 738.434 31.5566 738.73 31.5566C738.876 31.5566 739.077 31.5293 739.332 31.4746V32.5C738.999 32.5911 738.676 32.6367 738.361 32.6367C737.796 32.6367 737.37 32.4658 737.083 32.124C736.796 31.7822 736.652 31.2969 736.652 30.668V26.0811H735.306V25.1035H736.652V23.3125H737.917Z" fill="black"/>
<rect y="55" width="740" height="1" fill="#EDEDED"/>
</svg>
