<svg width="982" height="64" viewBox="0 0 982 64" fill="none" xmlns="http://www.w3.org/2000/svg">
<rect width="982" height="64" fill="white"/>
<rect width="84" height="33" transform="translate(0 15)" fill="#E60001"/>
<path d="M24.1152 39H20.8926L14.6191 28.709V39H11.3965V23.3594H14.6191L20.9033 33.6719V23.3594H24.1152V39ZM37.4398 32.2217H31.2523V36.4111H38.5141V39H28.0297V23.3594H38.4926V25.9697H31.2523V29.6973H37.4398V32.2217ZM53.6863 34.4883L55.7918 23.3594H59.0037L55.534 39H52.2898L49.7439 28.5371L47.198 39H43.9539L40.4842 23.3594H43.6961L45.8123 34.4668L48.3904 23.3594H51.1189L53.6863 34.4883ZM69.965 34.8965C69.965 34.2878 69.7502 33.8223 69.3205 33.5C68.8908 33.1706 68.1174 32.8268 67.0002 32.4688C65.883 32.1035 64.9986 31.7454 64.3469 31.3945C62.5708 30.4349 61.6828 29.1423 61.6828 27.5166C61.6828 26.6715 61.9191 25.9196 62.3918 25.2607C62.8716 24.5947 63.5555 24.0755 64.4436 23.7031C65.3387 23.3307 66.3413 23.1445 67.4514 23.1445C68.5686 23.1445 69.564 23.3486 70.4377 23.7568C71.3114 24.1579 71.9882 24.7272 72.468 25.4648C72.9549 26.2025 73.1984 27.0404 73.1984 27.9785H69.9758C69.9758 27.2624 69.7502 26.7074 69.299 26.3135C68.8479 25.9124 68.2141 25.7119 67.3977 25.7119C66.6099 25.7119 65.9976 25.8802 65.5607 26.2168C65.1239 26.5462 64.9055 26.9831 64.9055 27.5273C64.9055 28.0358 65.1597 28.4619 65.6682 28.8057C66.1838 29.1494 66.9393 29.4717 67.9348 29.7725C69.7681 30.3239 71.1037 31.0078 71.9416 31.8242C72.7795 32.6406 73.1984 33.6576 73.1984 34.875C73.1984 36.2285 72.6864 37.292 71.6623 38.0654C70.6382 38.8317 69.2596 39.2148 67.5266 39.2148C66.3234 39.2148 65.2277 38.9964 64.2395 38.5596C63.2512 38.1156 62.4956 37.5104 61.9729 36.7441C61.4572 35.9779 61.1994 35.0898 61.1994 34.0801H64.4328C64.4328 35.806 65.4641 36.6689 67.5266 36.6689C68.2928 36.6689 68.8908 36.515 69.3205 36.207C69.7502 35.8919 69.965 35.4551 69.965 34.8965Z" fill="white"/>
<rect width="84" height="33" transform="translate(84 15)" fill="#353236"/>
<path d="M110.626 39H107.403V32.2969H101.119V39H97.8965V23.3594H101.119V29.6973H107.403V23.3594H110.626V39ZM123.961 32.2217H117.774V36.4111H125.036V39H114.551V23.3594H125.014V25.9697H117.774V29.6973H123.961V32.2217ZM136.856 35.7773H131.206L130.132 39H126.705L132.527 23.3594H135.513L141.368 39H137.941L136.856 35.7773ZM132.076 33.167H135.986L134.02 27.3125L132.076 33.167ZM154.413 25.9697H149.622V39H146.4V25.9697H141.673V23.3594H154.413V25.9697Z" fill="white"/>
<path d="M348.805 36.5H347.485L342.475 28.8301V36.5H341.155V26.5469H342.475L347.499 34.251V26.5469H348.805V36.5ZM355.504 36.5C355.431 36.3542 355.372 36.0944 355.326 35.7207C354.738 36.3314 354.036 36.6367 353.221 36.6367C352.492 36.6367 351.892 36.4316 351.423 36.0215C350.958 35.6068 350.726 35.0827 350.726 34.4492C350.726 33.679 351.017 33.082 351.601 32.6582C352.188 32.2298 353.013 32.0156 354.075 32.0156H355.306V31.4346C355.306 30.9925 355.174 30.6416 354.909 30.3818C354.645 30.1175 354.255 29.9854 353.74 29.9854C353.289 29.9854 352.911 30.0993 352.605 30.3271C352.3 30.555 352.147 30.8307 352.147 31.1543H350.876C350.876 30.7852 351.006 30.4297 351.266 30.0879C351.53 29.7415 351.885 29.4681 352.332 29.2676C352.783 29.0671 353.278 28.9668 353.815 28.9668C354.668 28.9668 355.335 29.181 355.818 29.6094C356.301 30.0332 356.552 30.6188 356.57 31.3662V34.7705C356.57 35.4495 356.657 35.9896 356.83 36.3906V36.5H355.504ZM353.405 35.5361C353.802 35.5361 354.178 35.4336 354.533 35.2285C354.889 35.0234 355.146 34.7568 355.306 34.4287V32.9111H354.314C352.765 32.9111 351.99 33.3646 351.99 34.2715C351.99 34.668 352.122 34.9779 352.387 35.2012C352.651 35.4245 352.991 35.5361 353.405 35.5361ZM360.269 27.3125V29.1035H361.649V30.0811H360.269V34.668C360.269 34.9642 360.33 35.1875 360.453 35.3379C360.576 35.4837 360.786 35.5566 361.082 35.5566C361.228 35.5566 361.428 35.5293 361.684 35.4746V36.5C361.351 36.5911 361.027 36.6367 360.713 36.6367C360.148 36.6367 359.722 36.4658 359.435 36.124C359.147 35.7822 359.004 35.2969 359.004 34.668V30.0811H357.657V29.1035H359.004V27.3125H360.269ZM364.507 36.5H363.242V29.1035H364.507V36.5ZM363.14 27.1416C363.14 26.9365 363.201 26.7633 363.324 26.6221C363.452 26.4808 363.639 26.4102 363.885 26.4102C364.131 26.4102 364.318 26.4808 364.445 26.6221C364.573 26.7633 364.637 26.9365 364.637 27.1416C364.637 27.3467 364.573 27.5176 364.445 27.6543C364.318 27.791 364.131 27.8594 363.885 27.8594C363.639 27.8594 363.452 27.791 363.324 27.6543C363.201 27.5176 363.14 27.3467 363.14 27.1416ZM366.202 32.7334C366.202 32.0088 366.343 31.3571 366.626 30.7783C366.913 30.1995 367.31 29.7529 367.815 29.4385C368.326 29.124 368.907 28.9668 369.559 28.9668C370.566 28.9668 371.379 29.3154 371.999 30.0127C372.623 30.71 372.936 31.6374 372.936 32.7949V32.8838C372.936 33.6038 372.797 34.251 372.519 34.8252C372.245 35.3949 371.851 35.8392 371.336 36.1582C370.826 36.4772 370.238 36.6367 369.572 36.6367C368.57 36.6367 367.756 36.2881 367.132 35.5908C366.512 34.8936 366.202 33.9707 366.202 32.8223V32.7334ZM367.474 32.8838C367.474 33.7041 367.663 34.3626 368.041 34.8594C368.424 35.3561 368.934 35.6045 369.572 35.6045C370.215 35.6045 370.725 35.3538 371.104 34.8525C371.482 34.3467 371.671 33.6403 371.671 32.7334C371.671 31.9222 371.477 31.266 371.09 30.7646C370.707 30.2588 370.197 30.0059 369.559 30.0059C368.934 30.0059 368.431 30.2542 368.048 30.751C367.665 31.2477 367.474 31.9587 367.474 32.8838ZM375.718 29.1035L375.759 30.0332C376.324 29.3223 377.062 28.9668 377.974 28.9668C379.537 28.9668 380.325 29.8486 380.339 31.6123V36.5H379.074V31.6055C379.07 31.0723 378.947 30.6781 378.705 30.4229C378.468 30.1676 378.097 30.04 377.591 30.04C377.181 30.04 376.821 30.1494 376.511 30.3682C376.201 30.5869 375.959 30.874 375.786 31.2295V36.5H374.521V29.1035H375.718ZM386.812 36.5C386.74 36.3542 386.68 36.0944 386.635 35.7207C386.047 36.3314 385.345 36.6367 384.529 36.6367C383.8 36.6367 383.201 36.4316 382.731 36.0215C382.267 35.6068 382.034 35.0827 382.034 34.4492C382.034 33.679 382.326 33.082 382.909 32.6582C383.497 32.2298 384.322 32.0156 385.384 32.0156H386.614V31.4346C386.614 30.9925 386.482 30.6416 386.218 30.3818C385.953 30.1175 385.564 29.9854 385.049 29.9854C384.598 29.9854 384.219 30.0993 383.914 30.3271C383.609 30.555 383.456 30.8307 383.456 31.1543H382.185C382.185 30.7852 382.314 30.4297 382.574 30.0879C382.839 29.7415 383.194 29.4681 383.641 29.2676C384.092 29.0671 384.586 28.9668 385.124 28.9668C385.976 28.9668 386.644 29.181 387.127 29.6094C387.61 30.0332 387.861 30.6188 387.879 31.3662V34.7705C387.879 35.4495 387.965 35.9896 388.139 36.3906V36.5H386.812ZM384.714 35.5361C385.11 35.5361 385.486 35.4336 385.842 35.2285C386.197 35.0234 386.455 34.7568 386.614 34.4287V32.9111H385.623C384.074 32.9111 383.299 33.3646 383.299 34.2715C383.299 34.668 383.431 34.9779 383.695 35.2012C383.96 35.4245 384.299 35.5361 384.714 35.5361ZM391.235 36.5H389.971V26H391.235V36.5Z" fill="black"/>
<rect x="408" y="20.5" width="1" height="22" fill="#EDEDED"/>
<path d="M427.302 33.3623L427.493 34.6748L427.773 33.4922L429.742 26.5469H430.85L432.771 33.4922L433.044 34.6953L433.256 33.3555L434.801 26.5469H436.12L433.707 36.5H432.511L430.46 29.2471L430.303 28.4883L430.146 29.2471L428.02 36.5H426.823L424.417 26.5469H425.729L427.302 33.3623ZM436.831 32.7334C436.831 32.0088 436.972 31.3571 437.255 30.7783C437.542 30.1995 437.938 29.7529 438.444 29.4385C438.955 29.124 439.536 28.9668 440.188 28.9668C441.195 28.9668 442.008 29.3154 442.628 30.0127C443.252 30.71 443.564 31.6374 443.564 32.7949V32.8838C443.564 33.6038 443.425 34.251 443.147 34.8252C442.874 35.3949 442.48 35.8392 441.965 36.1582C441.454 36.4772 440.867 36.6367 440.201 36.6367C439.199 36.6367 438.385 36.2881 437.761 35.5908C437.141 34.8936 436.831 33.9707 436.831 32.8223V32.7334ZM438.103 32.8838C438.103 33.7041 438.292 34.3626 438.67 34.8594C439.053 35.3561 439.563 35.6045 440.201 35.6045C440.844 35.6045 441.354 35.3538 441.732 34.8525C442.111 34.3467 442.3 33.6403 442.3 32.7334C442.3 31.9222 442.106 31.266 441.719 30.7646C441.336 30.2588 440.826 30.0059 440.188 30.0059C439.563 30.0059 439.06 30.2542 438.677 30.751C438.294 31.2477 438.103 31.9587 438.103 32.8838ZM448.726 30.2383C448.534 30.2064 448.327 30.1904 448.104 30.1904C447.274 30.1904 446.711 30.5436 446.415 31.25V36.5H445.15V29.1035H446.381L446.401 29.958C446.816 29.2972 447.404 28.9668 448.165 28.9668C448.411 28.9668 448.598 28.9987 448.726 29.0625V30.2383ZM451.269 36.5H450.004V26H451.269V36.5ZM452.991 32.7402C452.991 31.6055 453.26 30.694 453.798 30.0059C454.336 29.3132 455.04 28.9668 455.91 28.9668C456.776 28.9668 457.462 29.263 457.968 29.8555V26H459.232V36.5H458.07L458.009 35.707C457.503 36.3268 456.799 36.6367 455.896 36.6367C455.04 36.6367 454.34 36.2858 453.798 35.584C453.26 34.8822 452.991 33.9661 452.991 32.8359V32.7402ZM454.256 32.8838C454.256 33.7223 454.429 34.3786 454.775 34.8525C455.122 35.3265 455.6 35.5635 456.211 35.5635C457.013 35.5635 457.599 35.2035 457.968 34.4834V31.0859C457.59 30.3887 457.008 30.04 456.225 30.04C455.605 30.04 455.122 30.2793 454.775 30.7578C454.429 31.2363 454.256 31.945 454.256 32.8838Z" fill="black"/>
<rect x="476" y="20.5" width="1" height="22" fill="#EDEDED"/>
<path d="M494.475 35.4268H499.191V36.5H493.155V26.5469H494.475V35.4268ZM501.864 36.5H500.6V29.1035H501.864V36.5ZM500.497 27.1416C500.497 26.9365 500.559 26.7633 500.682 26.6221C500.809 26.4808 500.996 26.4102 501.242 26.4102C501.488 26.4102 501.675 26.4808 501.803 26.6221C501.93 26.7633 501.994 26.9365 501.994 27.1416C501.994 27.3467 501.93 27.5176 501.803 27.6543C501.675 27.791 501.488 27.8594 501.242 27.8594C500.996 27.8594 500.809 27.791 500.682 27.6543C500.559 27.5176 500.497 27.3467 500.497 27.1416ZM504.517 36.5V30.0811H503.348V29.1035H504.517V28.3447C504.517 27.5518 504.729 26.9388 505.152 26.5059C505.576 26.0729 506.175 25.8564 506.95 25.8564C507.242 25.8564 507.531 25.8952 507.818 25.9727L507.75 26.998C507.536 26.957 507.308 26.9365 507.066 26.9365C506.656 26.9365 506.34 27.0573 506.116 27.2988C505.893 27.5358 505.781 27.8776 505.781 28.3242V29.1035H507.36V30.0811H505.781V36.5H504.517ZM511.667 36.6367C510.664 36.6367 509.849 36.3086 509.22 35.6523C508.591 34.9915 508.276 34.1097 508.276 33.0068V32.7744C508.276 32.0407 508.415 31.3867 508.693 30.8125C508.976 30.2337 509.368 29.7826 509.869 29.459C510.375 29.1309 510.922 28.9668 511.51 28.9668C512.471 28.9668 513.219 29.2835 513.752 29.917C514.285 30.5505 514.552 31.4574 514.552 32.6377V33.1641H509.541C509.559 33.8932 509.771 34.4834 510.177 34.9346C510.587 35.3812 511.106 35.6045 511.735 35.6045C512.182 35.6045 512.56 35.5133 512.87 35.3311C513.18 35.1488 513.451 34.9072 513.684 34.6064L514.456 35.208C513.836 36.1605 512.907 36.6367 511.667 36.6367ZM511.51 30.0059C510.999 30.0059 510.571 30.1927 510.225 30.5664C509.878 30.9355 509.664 31.4551 509.582 32.125H513.287V32.0293C513.251 31.3867 513.077 30.89 512.768 30.5391C512.458 30.1836 512.038 30.0059 511.51 30.0059ZM520.328 34.5381C520.328 34.1963 520.198 33.932 519.938 33.7451C519.683 33.5537 519.234 33.3896 518.592 33.2529C517.954 33.1162 517.446 32.9521 517.067 32.7607C516.694 32.5693 516.416 32.3415 516.233 32.0771C516.056 31.8128 515.967 31.4984 515.967 31.1338C515.967 30.5277 516.222 30.015 516.732 29.5957C517.247 29.1764 517.904 28.9668 518.701 28.9668C519.54 28.9668 520.219 29.1833 520.738 29.6162C521.262 30.0492 521.524 30.6029 521.524 31.2773H520.253C520.253 30.931 520.105 30.6325 519.809 30.3818C519.517 30.1312 519.148 30.0059 518.701 30.0059C518.241 30.0059 517.881 30.1061 517.621 30.3066C517.361 30.5072 517.231 30.7692 517.231 31.0928C517.231 31.3981 517.352 31.6283 517.594 31.7832C517.835 31.9382 518.271 32.0863 518.899 32.2275C519.533 32.3688 520.046 32.5374 520.438 32.7334C520.829 32.9294 521.119 33.1663 521.306 33.4443C521.497 33.7178 521.593 34.0527 521.593 34.4492C521.593 35.11 521.328 35.641 520.8 36.042C520.271 36.4385 519.585 36.6367 518.742 36.6367C518.15 36.6367 517.626 36.5319 517.17 36.3223C516.714 36.1126 516.356 35.821 516.097 35.4473C515.841 35.069 515.714 34.6611 515.714 34.2236H516.979C517.001 34.6475 517.17 34.9847 517.484 35.2354C517.803 35.4814 518.223 35.6045 518.742 35.6045C519.221 35.6045 519.604 35.5088 519.891 35.3174C520.182 35.1214 520.328 34.8617 520.328 34.5381ZM524.956 27.3125V29.1035H526.337V30.0811H524.956V34.668C524.956 34.9642 525.018 35.1875 525.141 35.3379C525.264 35.4837 525.473 35.5566 525.77 35.5566C525.915 35.5566 526.116 35.5293 526.371 35.4746V36.5C526.038 36.5911 525.715 36.6367 525.4 36.6367C524.835 36.6367 524.409 36.4658 524.122 36.124C523.835 35.7822 523.691 35.2969 523.691 34.668V30.0811H522.345V29.1035H523.691V27.3125H524.956ZM530.24 34.6475L531.963 29.1035H533.316L530.343 37.6416C529.882 38.8721 529.151 39.4873 528.148 39.4873L527.909 39.4668L527.438 39.3779V38.3525L527.779 38.3799C528.208 38.3799 528.54 38.2933 528.777 38.1201C529.019 37.9469 529.217 37.6302 529.372 37.1699L529.652 36.418L527.014 29.1035H528.395L530.24 34.6475ZM535.825 36.5H534.561V26H535.825V36.5ZM540.925 36.6367C539.922 36.6367 539.106 36.3086 538.478 35.6523C537.849 34.9915 537.534 34.1097 537.534 33.0068V32.7744C537.534 32.0407 537.673 31.3867 537.951 30.8125C538.234 30.2337 538.626 29.7826 539.127 29.459C539.633 29.1309 540.18 28.9668 540.768 28.9668C541.729 28.9668 542.477 29.2835 543.01 29.917C543.543 30.5505 543.81 31.4574 543.81 32.6377V33.1641H538.799C538.817 33.8932 539.029 34.4834 539.435 34.9346C539.845 35.3812 540.364 35.6045 540.993 35.6045C541.44 35.6045 541.818 35.5133 542.128 35.3311C542.438 35.1488 542.709 34.9072 542.941 34.6064L543.714 35.208C543.094 36.1605 542.164 36.6367 540.925 36.6367ZM540.768 30.0059C540.257 30.0059 539.829 30.1927 539.482 30.5664C539.136 30.9355 538.922 31.4551 538.84 32.125H542.545V32.0293C542.508 31.3867 542.335 30.89 542.025 30.5391C541.715 30.1836 541.296 30.0059 540.768 30.0059Z" fill="black"/>
<rect x="560" y="20.5" width="1" height="22" fill="#EDEDED"/>
<path d="M584.032 27.627H580.833V36.5H579.527V27.627H576.335V26.5469H584.032V27.627ZM588.366 30.2383C588.175 30.2064 587.967 30.1904 587.744 30.1904C586.915 30.1904 586.352 30.5436 586.056 31.25V36.5H584.791V29.1035H586.021L586.042 29.958C586.457 29.2972 587.045 28.9668 587.806 28.9668C588.052 28.9668 588.239 28.9987 588.366 29.0625V30.2383ZM593.828 36.5C593.755 36.3542 593.696 36.0944 593.65 35.7207C593.062 36.3314 592.361 36.6367 591.545 36.6367C590.816 36.6367 590.216 36.4316 589.747 36.0215C589.282 35.6068 589.05 35.0827 589.05 34.4492C589.05 33.679 589.341 33.082 589.925 32.6582C590.513 32.2298 591.338 32.0156 592.399 32.0156H593.63V31.4346C593.63 30.9925 593.498 30.6416 593.233 30.3818C592.969 30.1175 592.579 29.9854 592.064 29.9854C591.613 29.9854 591.235 30.0993 590.93 30.3271C590.624 30.555 590.472 30.8307 590.472 31.1543H589.2C589.2 30.7852 589.33 30.4297 589.59 30.0879C589.854 29.7415 590.21 29.4681 590.656 29.2676C591.107 29.0671 591.602 28.9668 592.14 28.9668C592.992 28.9668 593.66 29.181 594.143 29.6094C594.626 30.0332 594.876 30.6188 594.895 31.3662V34.7705C594.895 35.4495 594.981 35.9896 595.154 36.3906V36.5H593.828ZM591.729 35.5361C592.126 35.5361 592.502 35.4336 592.857 35.2285C593.213 35.0234 593.47 34.7568 593.63 34.4287V32.9111H592.639C591.089 32.9111 590.314 33.3646 590.314 34.2715C590.314 34.668 590.447 34.9779 590.711 35.2012C590.975 35.4245 591.315 35.5361 591.729 35.5361ZM599.208 34.7842L601.04 29.1035H602.332L599.68 36.5H598.716L596.036 29.1035H597.328L599.208 34.7842ZM606.522 36.6367C605.52 36.6367 604.704 36.3086 604.075 35.6523C603.446 34.9915 603.132 34.1097 603.132 33.0068V32.7744C603.132 32.0407 603.271 31.3867 603.549 30.8125C603.831 30.2337 604.223 29.7826 604.725 29.459C605.23 29.1309 605.777 28.9668 606.365 28.9668C607.327 28.9668 608.074 29.2835 608.607 29.917C609.141 30.5505 609.407 31.4574 609.407 32.6377V33.1641H604.396C604.415 33.8932 604.627 34.4834 605.032 34.9346C605.442 35.3812 605.962 35.6045 606.591 35.6045C607.037 35.6045 607.416 35.5133 607.726 35.3311C608.035 35.1488 608.307 34.9072 608.539 34.6064L609.312 35.208C608.692 36.1605 607.762 36.6367 606.522 36.6367ZM606.365 30.0059C605.855 30.0059 605.426 30.1927 605.08 30.5664C604.734 30.9355 604.52 31.4551 604.438 32.125H608.143V32.0293C608.106 31.3867 607.933 30.89 607.623 30.5391C607.313 30.1836 606.894 30.0059 606.365 30.0059ZM612.251 36.5H610.986V26H612.251V36.5Z" fill="black"/>
<rect x="629" y="20.5" width="1" height="22" fill="#EDEDED"/>
<path d="M651.781 31.8994H647.468V35.4268H652.479V36.5H646.155V26.5469H652.41V27.627H647.468V30.8262H651.781V31.8994ZM655.11 29.1035L655.151 30.0332C655.716 29.3223 656.455 28.9668 657.366 28.9668C658.929 28.9668 659.718 29.8486 659.731 31.6123V36.5H658.467V31.6055C658.462 31.0723 658.339 30.6781 658.098 30.4229C657.861 30.1676 657.489 30.04 656.983 30.04C656.573 30.04 656.213 30.1494 655.903 30.3682C655.593 30.5869 655.352 30.874 655.179 31.2295V36.5H653.914V29.1035H655.11ZM663.354 27.3125V29.1035H664.735V30.0811H663.354V34.668C663.354 34.9642 663.416 35.1875 663.539 35.3379C663.662 35.4837 663.872 35.5566 664.168 35.5566C664.314 35.5566 664.514 35.5293 664.77 35.4746V36.5C664.437 36.5911 664.113 36.6367 663.799 36.6367C663.234 36.6367 662.808 36.4658 662.521 36.124C662.233 35.7822 662.09 35.2969 662.09 34.668V30.0811H660.743V29.1035H662.09V27.3125H663.354ZM669.288 36.6367C668.285 36.6367 667.47 36.3086 666.841 35.6523C666.212 34.9915 665.897 34.1097 665.897 33.0068V32.7744C665.897 32.0407 666.036 31.3867 666.314 30.8125C666.597 30.2337 666.989 29.7826 667.49 29.459C667.996 29.1309 668.543 28.9668 669.131 28.9668C670.092 28.9668 670.84 29.2835 671.373 29.917C671.906 30.5505 672.173 31.4574 672.173 32.6377V33.1641H667.162C667.18 33.8932 667.392 34.4834 667.798 34.9346C668.208 35.3812 668.728 35.6045 669.356 35.6045C669.803 35.6045 670.181 35.5133 670.491 35.3311C670.801 35.1488 671.072 34.9072 671.305 34.6064L672.077 35.208C671.457 36.1605 670.528 36.6367 669.288 36.6367ZM669.131 30.0059C668.62 30.0059 668.192 30.1927 667.846 30.5664C667.499 30.9355 667.285 31.4551 667.203 32.125H670.908V32.0293C670.872 31.3867 670.699 30.89 670.389 30.5391C670.079 30.1836 669.66 30.0059 669.131 30.0059ZM677.218 30.2383C677.026 30.2064 676.819 30.1904 676.596 30.1904C675.766 30.1904 675.203 30.5436 674.907 31.25V36.5H673.643V29.1035H674.873L674.894 29.958C675.308 29.2972 675.896 28.9668 676.657 28.9668C676.903 28.9668 677.09 28.9987 677.218 29.0625V30.2383ZM680.444 27.3125V29.1035H681.825V30.0811H680.444V34.668C680.444 34.9642 680.506 35.1875 680.629 35.3379C680.752 35.4837 680.962 35.5566 681.258 35.5566C681.404 35.5566 681.604 35.5293 681.859 35.4746V36.5C681.527 36.5911 681.203 36.6367 680.889 36.6367C680.324 36.6367 679.897 36.4658 679.61 36.124C679.323 35.7822 679.18 35.2969 679.18 34.668V30.0811H677.833V29.1035H679.18V27.3125H680.444ZM687.875 36.5C687.802 36.3542 687.743 36.0944 687.697 35.7207C687.109 36.3314 686.408 36.6367 685.592 36.6367C684.863 36.6367 684.263 36.4316 683.794 36.0215C683.329 35.6068 683.097 35.0827 683.097 34.4492C683.097 33.679 683.388 33.082 683.972 32.6582C684.56 32.2298 685.384 32.0156 686.446 32.0156H687.677V31.4346C687.677 30.9925 687.545 30.6416 687.28 30.3818C687.016 30.1175 686.626 29.9854 686.111 29.9854C685.66 29.9854 685.282 30.0993 684.977 30.3271C684.671 30.555 684.519 30.8307 684.519 31.1543H683.247C683.247 30.7852 683.377 30.4297 683.637 30.0879C683.901 29.7415 684.257 29.4681 684.703 29.2676C685.154 29.0671 685.649 28.9668 686.187 28.9668C687.039 28.9668 687.706 29.181 688.189 29.6094C688.673 30.0332 688.923 30.6188 688.941 31.3662V34.7705C688.941 35.4495 689.028 35.9896 689.201 36.3906V36.5H687.875ZM685.776 35.5361C686.173 35.5361 686.549 35.4336 686.904 35.2285C687.26 35.0234 687.517 34.7568 687.677 34.4287V32.9111H686.686C685.136 32.9111 684.361 33.3646 684.361 34.2715C684.361 34.668 684.493 34.9779 684.758 35.2012C685.022 35.4245 685.362 35.5361 685.776 35.5361ZM692.298 36.5H691.033V29.1035H692.298V36.5ZM690.931 27.1416C690.931 26.9365 690.992 26.7633 691.115 26.6221C691.243 26.4808 691.43 26.4102 691.676 26.4102C691.922 26.4102 692.109 26.4808 692.236 26.6221C692.364 26.7633 692.428 26.9365 692.428 27.1416C692.428 27.3467 692.364 27.5176 692.236 27.6543C692.109 27.791 691.922 27.8594 691.676 27.8594C691.43 27.8594 691.243 27.791 691.115 27.6543C690.992 27.5176 690.931 27.3467 690.931 27.1416ZM695.524 29.1035L695.565 30.0332C696.131 29.3223 696.869 28.9668 697.78 28.9668C699.343 28.9668 700.132 29.8486 700.146 31.6123V36.5H698.881V31.6055C698.876 31.0723 698.753 30.6781 698.512 30.4229C698.275 30.1676 697.903 30.04 697.397 30.04C696.987 30.04 696.627 30.1494 696.317 30.3682C696.007 30.5869 695.766 30.874 695.593 31.2295V36.5H694.328V29.1035H695.524ZM703.242 29.1035L703.276 29.9238C703.819 29.2858 704.55 28.9668 705.471 28.9668C706.505 28.9668 707.209 29.3633 707.583 30.1562C707.829 29.8008 708.148 29.5137 708.54 29.2949C708.937 29.0762 709.404 28.9668 709.941 28.9668C711.564 28.9668 712.389 29.8258 712.416 31.5439V36.5H711.151V31.6191C711.151 31.0905 711.031 30.6963 710.789 30.4365C710.548 30.1722 710.142 30.04 709.572 30.04C709.103 30.04 708.713 30.1813 708.403 30.4639C708.093 30.7419 707.913 31.1178 707.863 31.5918V36.5H706.592V31.6533C706.592 30.5778 706.065 30.04 705.013 30.04C704.183 30.04 703.616 30.3932 703.311 31.0996V36.5H702.046V29.1035H703.242ZM717.399 36.6367C716.397 36.6367 715.581 36.3086 714.952 35.6523C714.323 34.9915 714.009 34.1097 714.009 33.0068V32.7744C714.009 32.0407 714.148 31.3867 714.426 30.8125C714.708 30.2337 715.1 29.7826 715.602 29.459C716.107 29.1309 716.654 28.9668 717.242 28.9668C718.204 28.9668 718.951 29.2835 719.484 29.917C720.018 30.5505 720.284 31.4574 720.284 32.6377V33.1641H715.273C715.292 33.8932 715.504 34.4834 715.909 34.9346C716.319 35.3812 716.839 35.6045 717.468 35.6045C717.914 35.6045 718.293 35.5133 718.603 35.3311C718.912 35.1488 719.184 34.9072 719.416 34.6064L720.188 35.208C719.569 36.1605 718.639 36.6367 717.399 36.6367ZM717.242 30.0059C716.732 30.0059 716.303 30.1927 715.957 30.5664C715.611 30.9355 715.396 31.4551 715.314 32.125H719.02V32.0293C718.983 31.3867 718.81 30.89 718.5 30.5391C718.19 30.1836 717.771 30.0059 717.242 30.0059ZM722.95 29.1035L722.991 30.0332C723.556 29.3223 724.295 28.9668 725.206 28.9668C726.769 28.9668 727.558 29.8486 727.571 31.6123V36.5H726.307V31.6055C726.302 31.0723 726.179 30.6781 725.938 30.4229C725.701 30.1676 725.329 30.04 724.823 30.04C724.413 30.04 724.053 30.1494 723.743 30.3682C723.433 30.5869 723.192 30.874 723.019 31.2295V36.5H721.754V29.1035H722.95ZM731.194 27.3125V29.1035H732.575V30.0811H731.194V34.668C731.194 34.9642 731.256 35.1875 731.379 35.3379C731.502 35.4837 731.712 35.5566 732.008 35.5566C732.154 35.5566 732.354 35.5293 732.609 35.4746V36.5C732.277 36.5911 731.953 36.6367 731.639 36.6367C731.074 36.6367 730.647 36.4658 730.36 36.124C730.073 35.7822 729.93 35.2969 729.93 34.668V30.0811H728.583V29.1035H729.93V27.3125H731.194Z" fill="black"/>
<rect x="749" y="20.5" width="1" height="22" fill="#EDEDED"/>
<path d="M773.032 27.627H769.833V36.5H768.527V27.627H765.335V26.5469H773.032V27.627ZM776.696 36.6367C775.694 36.6367 774.878 36.3086 774.249 35.6523C773.62 34.9915 773.306 34.1097 773.306 33.0068V32.7744C773.306 32.0407 773.445 31.3867 773.723 30.8125C774.005 30.2337 774.397 29.7826 774.898 29.459C775.404 29.1309 775.951 28.9668 776.539 28.9668C777.501 28.9668 778.248 29.2835 778.781 29.917C779.314 30.5505 779.581 31.4574 779.581 32.6377V33.1641H774.57C774.589 33.8932 774.8 34.4834 775.206 34.9346C775.616 35.3812 776.136 35.6045 776.765 35.6045C777.211 35.6045 777.59 35.5133 777.899 35.3311C778.209 35.1488 778.48 34.9072 778.713 34.6064L779.485 35.208C778.866 36.1605 777.936 36.6367 776.696 36.6367ZM776.539 30.0059C776.029 30.0059 775.6 30.1927 775.254 30.5664C774.908 30.9355 774.693 31.4551 774.611 32.125H778.316V32.0293C778.28 31.3867 778.107 30.89 777.797 30.5391C777.487 30.1836 777.068 30.0059 776.539 30.0059ZM784.018 35.6045C784.469 35.6045 784.863 35.4678 785.2 35.1943C785.537 34.9209 785.724 34.5791 785.761 34.1689H786.957C786.934 34.5928 786.788 34.9961 786.52 35.3789C786.251 35.7617 785.891 36.0671 785.439 36.2949C784.993 36.5228 784.519 36.6367 784.018 36.6367C783.01 36.6367 782.208 36.3018 781.611 35.6318C781.019 34.9574 780.723 34.0368 780.723 32.8701V32.6582C780.723 31.9382 780.855 31.2979 781.119 30.7373C781.383 30.1768 781.762 29.7415 782.254 29.4316C782.751 29.1217 783.336 28.9668 784.011 28.9668C784.84 28.9668 785.528 29.2152 786.075 29.7119C786.627 30.2087 786.921 30.8535 786.957 31.6465H785.761C785.724 31.168 785.542 30.776 785.214 30.4707C784.89 30.1608 784.489 30.0059 784.011 30.0059C783.368 30.0059 782.869 30.2383 782.514 30.7031C782.163 31.1634 781.987 31.8311 781.987 32.7061V32.9453C781.987 33.7975 782.163 34.4538 782.514 34.9141C782.865 35.3743 783.366 35.6045 784.018 35.6045ZM789.644 29.999C790.204 29.3109 790.933 28.9668 791.831 28.9668C793.394 28.9668 794.183 29.8486 794.196 31.6123V36.5H792.932V31.6055C792.927 31.0723 792.804 30.6781 792.562 30.4229C792.326 30.1676 791.954 30.04 791.448 30.04C791.038 30.04 790.678 30.1494 790.368 30.3682C790.058 30.5869 789.817 30.874 789.644 31.2295V36.5H788.379V26H789.644V29.999ZM797.286 29.1035L797.327 30.0332C797.892 29.3223 798.631 28.9668 799.542 28.9668C801.105 28.9668 801.894 29.8486 801.907 31.6123V36.5H800.643V31.6055C800.638 31.0723 800.515 30.6781 800.273 30.4229C800.036 30.1676 799.665 30.04 799.159 30.04C798.749 30.04 798.389 30.1494 798.079 30.3682C797.769 30.5869 797.528 30.874 797.354 31.2295V36.5H796.09V29.1035H797.286ZM803.479 32.7334C803.479 32.0088 803.621 31.3571 803.903 30.7783C804.19 30.1995 804.587 29.7529 805.093 29.4385C805.603 29.124 806.184 28.9668 806.836 28.9668C807.843 28.9668 808.657 29.3154 809.276 30.0127C809.901 30.71 810.213 31.6374 810.213 32.7949V32.8838C810.213 33.6038 810.074 34.251 809.796 34.8252C809.522 35.3949 809.128 35.8392 808.613 36.1582C808.103 36.4772 807.515 36.6367 806.85 36.6367C805.847 36.6367 805.034 36.2881 804.409 35.5908C803.789 34.8936 803.479 33.9707 803.479 32.8223V32.7334ZM804.751 32.8838C804.751 33.7041 804.94 34.3626 805.318 34.8594C805.701 35.3561 806.212 35.6045 806.85 35.6045C807.492 35.6045 808.003 35.3538 808.381 34.8525C808.759 34.3467 808.948 33.6403 808.948 32.7334C808.948 31.9222 808.755 31.266 808.367 30.7646C807.984 30.2588 807.474 30.0059 806.836 30.0059C806.212 30.0059 805.708 30.2542 805.325 30.751C804.942 31.2477 804.751 31.9587 804.751 32.8838ZM813.173 36.5H811.908V26H813.173V36.5ZM814.868 32.7334C814.868 32.0088 815.009 31.3571 815.292 30.7783C815.579 30.1995 815.976 29.7529 816.481 29.4385C816.992 29.124 817.573 28.9668 818.225 28.9668C819.232 28.9668 820.045 29.3154 820.665 30.0127C821.289 30.71 821.602 31.6374 821.602 32.7949V32.8838C821.602 33.6038 821.463 34.251 821.185 34.8252C820.911 35.3949 820.517 35.8392 820.002 36.1582C819.492 36.4772 818.904 36.6367 818.238 36.6367C817.236 36.6367 816.422 36.2881 815.798 35.5908C815.178 34.8936 814.868 33.9707 814.868 32.8223V32.7334ZM816.14 32.8838C816.14 33.7041 816.329 34.3626 816.707 34.8594C817.09 35.3561 817.6 35.6045 818.238 35.6045C818.881 35.6045 819.391 35.3538 819.77 34.8525C820.148 34.3467 820.337 33.6403 820.337 32.7334C820.337 31.9222 820.143 31.266 819.756 30.7646C819.373 30.2588 818.863 30.0059 818.225 30.0059C817.6 30.0059 817.097 30.2542 816.714 30.751C816.331 31.2477 816.14 31.9587 816.14 32.8838ZM822.887 32.7402C822.887 31.5872 823.153 30.6712 823.687 29.9922C824.22 29.3086 824.926 28.9668 825.806 28.9668C826.708 28.9668 827.412 29.2858 827.918 29.9238L827.979 29.1035H829.135V36.3223C829.135 37.2793 828.85 38.0335 828.28 38.585C827.715 39.1364 826.954 39.4121 825.997 39.4121C825.464 39.4121 824.942 39.2982 824.432 39.0703C823.921 38.8424 823.532 38.5303 823.263 38.1338L823.919 37.375C824.461 38.0449 825.124 38.3799 825.908 38.3799C826.523 38.3799 827.002 38.2067 827.344 37.8604C827.69 37.514 827.863 37.0264 827.863 36.3975V35.7617C827.357 36.3451 826.667 36.6367 825.792 36.6367C824.926 36.6367 824.224 36.2881 823.687 35.5908C823.153 34.8936 822.887 33.9434 822.887 32.7402ZM824.158 32.8838C824.158 33.7178 824.329 34.374 824.671 34.8525C825.013 35.3265 825.491 35.5635 826.106 35.5635C826.904 35.5635 827.49 35.2012 827.863 34.4766V31.0996C827.476 30.3932 826.895 30.04 826.12 30.04C825.505 30.04 825.024 30.2793 824.678 30.7578C824.331 31.2363 824.158 31.945 824.158 32.8838ZM833.469 34.6475L835.191 29.1035H836.545L833.571 37.6416C833.111 38.8721 832.38 39.4873 831.377 39.4873L831.138 39.4668L830.666 39.3779V38.3525L831.008 38.3799C831.436 38.3799 831.769 38.2933 832.006 38.1201C832.247 37.9469 832.446 37.6302 832.601 37.1699L832.881 36.418L830.242 29.1035H831.623L833.469 34.6475Z" fill="black"/>
<rect x="852" y="20.5" width="1" height="22" fill="#EDEDED"/>
<path d="M874.645 32.1045H870.468V36.5H869.155V26.5469H875.321V27.627H870.468V31.0312H874.645V32.1045ZM878.069 36.5H876.805V29.1035H878.069V36.5ZM876.702 27.1416C876.702 26.9365 876.764 26.7633 876.887 26.6221C877.014 26.4808 877.201 26.4102 877.447 26.4102C877.693 26.4102 877.88 26.4808 878.008 26.6221C878.135 26.7633 878.199 26.9365 878.199 27.1416C878.199 27.3467 878.135 27.5176 878.008 27.6543C877.88 27.791 877.693 27.8594 877.447 27.8594C877.201 27.8594 877.014 27.791 876.887 27.6543C876.764 27.5176 876.702 27.3467 876.702 27.1416ZM881.296 29.1035L881.337 30.0332C881.902 29.3223 882.64 28.9668 883.552 28.9668C885.115 28.9668 885.903 29.8486 885.917 31.6123V36.5H884.652V31.6055C884.648 31.0723 884.525 30.6781 884.283 30.4229C884.046 30.1676 883.675 30.04 883.169 30.04C882.759 30.04 882.399 30.1494 882.089 30.3682C881.779 30.5869 881.537 30.874 881.364 31.2295V36.5H880.1V29.1035H881.296ZM892.391 36.5C892.318 36.3542 892.258 36.0944 892.213 35.7207C891.625 36.3314 890.923 36.6367 890.107 36.6367C889.378 36.6367 888.779 36.4316 888.31 36.0215C887.845 35.6068 887.612 35.0827 887.612 34.4492C887.612 33.679 887.904 33.082 888.487 32.6582C889.075 32.2298 889.9 32.0156 890.962 32.0156H892.192V31.4346C892.192 30.9925 892.06 30.6416 891.796 30.3818C891.532 30.1175 891.142 29.9854 890.627 29.9854C890.176 29.9854 889.798 30.0993 889.492 30.3271C889.187 30.555 889.034 30.8307 889.034 31.1543H887.763C887.763 30.7852 887.893 30.4297 888.152 30.0879C888.417 29.7415 888.772 29.4681 889.219 29.2676C889.67 29.0671 890.164 28.9668 890.702 28.9668C891.554 28.9668 892.222 29.181 892.705 29.6094C893.188 30.0332 893.439 30.6188 893.457 31.3662V34.7705C893.457 35.4495 893.544 35.9896 893.717 36.3906V36.5H892.391ZM890.292 35.5361C890.688 35.5361 891.064 35.4336 891.42 35.2285C891.775 35.0234 892.033 34.7568 892.192 34.4287V32.9111H891.201C889.652 32.9111 888.877 33.3646 888.877 34.2715C888.877 34.668 889.009 34.9779 889.273 35.2012C889.538 35.4245 889.877 35.5361 890.292 35.5361ZM896.636 29.1035L896.677 30.0332C897.242 29.3223 897.98 28.9668 898.892 28.9668C900.455 28.9668 901.243 29.8486 901.257 31.6123V36.5H899.992V31.6055C899.988 31.0723 899.865 30.6781 899.623 30.4229C899.386 30.1676 899.015 30.04 898.509 30.04C898.099 30.04 897.739 30.1494 897.429 30.3682C897.119 30.5869 896.877 30.874 896.704 31.2295V36.5H895.439V29.1035H896.636ZM906.131 35.6045C906.582 35.6045 906.976 35.4678 907.313 35.1943C907.651 34.9209 907.838 34.5791 907.874 34.1689H909.07C909.048 34.5928 908.902 34.9961 908.633 35.3789C908.364 35.7617 908.004 36.0671 907.553 36.2949C907.106 36.5228 906.632 36.6367 906.131 36.6367C905.124 36.6367 904.322 36.3018 903.725 35.6318C903.132 34.9574 902.836 34.0368 902.836 32.8701V32.6582C902.836 31.9382 902.968 31.2979 903.232 30.7373C903.497 30.1768 903.875 29.7415 904.367 29.4316C904.864 29.1217 905.45 28.9668 906.124 28.9668C906.953 28.9668 907.642 29.2152 908.188 29.7119C908.74 30.2087 909.034 30.8535 909.07 31.6465H907.874C907.838 31.168 907.655 30.776 907.327 30.4707C907.004 30.1608 906.603 30.0059 906.124 30.0059C905.481 30.0059 904.982 30.2383 904.627 30.7031C904.276 31.1634 904.101 31.8311 904.101 32.7061V32.9453C904.101 33.7975 904.276 34.4538 904.627 34.9141C904.978 35.3743 905.479 35.6045 906.131 35.6045ZM913.562 36.6367C912.559 36.6367 911.743 36.3086 911.114 35.6523C910.485 34.9915 910.171 34.1097 910.171 33.0068V32.7744C910.171 32.0407 910.31 31.3867 910.588 30.8125C910.87 30.2337 911.262 29.7826 911.764 29.459C912.27 29.1309 912.816 28.9668 913.404 28.9668C914.366 28.9668 915.113 29.2835 915.646 29.917C916.18 30.5505 916.446 31.4574 916.446 32.6377V33.1641H911.436C911.454 33.8932 911.666 34.4834 912.071 34.9346C912.481 35.3812 913.001 35.6045 913.63 35.6045C914.076 35.6045 914.455 35.5133 914.765 35.3311C915.075 35.1488 915.346 34.9072 915.578 34.6064L916.351 35.208C915.731 36.1605 914.801 36.6367 913.562 36.6367ZM913.404 30.0059C912.894 30.0059 912.465 30.1927 912.119 30.5664C911.773 30.9355 911.559 31.4551 911.477 32.125H915.182V32.0293C915.145 31.3867 914.972 30.89 914.662 30.5391C914.352 30.1836 913.933 30.0059 913.404 30.0059Z" fill="black"/>
<rect x="932" y="20.5" width="1" height="22" fill="#EDEDED"/>
<path d="M952.088 32.0635C950.962 31.7399 950.142 31.3434 949.627 30.874C949.117 30.4001 948.861 29.8167 948.861 29.124C948.861 28.3402 949.174 27.693 949.798 27.1826C950.427 26.6676 951.243 26.4102 952.245 26.4102C952.929 26.4102 953.537 26.5423 954.07 26.8066C954.608 27.071 955.023 27.4355 955.314 27.9004C955.611 28.3652 955.759 28.8734 955.759 29.4248H954.439C954.439 28.8232 954.248 28.3516 953.865 28.0098C953.482 27.6634 952.942 27.4902 952.245 27.4902C951.598 27.4902 951.092 27.6338 950.728 27.9209C950.368 28.2035 950.188 28.5977 950.188 29.1035C950.188 29.5091 950.358 29.8532 950.7 30.1357C951.047 30.4137 951.632 30.6689 952.457 30.9014C953.286 31.1338 953.934 31.3913 954.398 31.6738C954.868 31.9518 955.214 32.2777 955.438 32.6514C955.665 33.0251 955.779 33.4648 955.779 33.9707C955.779 34.7773 955.465 35.4245 954.836 35.9121C954.207 36.3952 953.366 36.6367 952.313 36.6367C951.63 36.6367 950.992 36.5068 950.399 36.2471C949.807 35.9827 949.349 35.6227 949.025 35.167C948.706 34.7113 948.547 34.194 948.547 33.6152H949.866C949.866 34.2168 950.087 34.693 950.529 35.0439C950.976 35.3903 951.571 35.5635 952.313 35.5635C953.006 35.5635 953.537 35.4222 953.906 35.1396C954.275 34.8571 954.46 34.472 954.46 33.9844C954.46 33.4967 954.289 33.1208 953.947 32.8564C953.605 32.5876 952.986 32.3232 952.088 32.0635ZM963.518 32.8838C963.518 34.0094 963.26 34.9163 962.745 35.6045C962.23 36.2926 961.533 36.6367 960.653 36.6367C959.756 36.6367 959.049 36.3519 958.534 35.7822V39.3438H957.27V29.1035H958.425L958.486 29.9238C959.001 29.2858 959.717 28.9668 960.633 28.9668C961.521 28.9668 962.223 29.3018 962.738 29.9717C963.258 30.6416 963.518 31.5736 963.518 32.7676V32.8838ZM962.253 32.7402C962.253 31.9062 962.075 31.2477 961.72 30.7646C961.364 30.2816 960.877 30.04 960.257 30.04C959.491 30.04 958.917 30.3796 958.534 31.0586V34.5928C958.912 35.2673 959.491 35.6045 960.271 35.6045C960.877 35.6045 961.357 35.3652 961.713 34.8867C962.073 34.4036 962.253 33.6882 962.253 32.7402ZM964.796 32.7334C964.796 32.0088 964.937 31.3571 965.22 30.7783C965.507 30.1995 965.903 29.7529 966.409 29.4385C966.92 29.124 967.501 28.9668 968.152 28.9668C969.16 28.9668 969.973 29.3154 970.593 30.0127C971.217 30.71 971.529 31.6374 971.529 32.7949V32.8838C971.529 33.6038 971.39 34.251 971.112 34.8252C970.839 35.3949 970.445 35.8392 969.93 36.1582C969.419 36.4772 968.831 36.6367 968.166 36.6367C967.163 36.6367 966.35 36.2881 965.726 35.5908C965.106 34.8936 964.796 33.9707 964.796 32.8223V32.7334ZM966.067 32.8838C966.067 33.7041 966.257 34.3626 966.635 34.8594C967.018 35.3561 967.528 35.6045 968.166 35.6045C968.809 35.6045 969.319 35.3538 969.697 34.8525C970.076 34.3467 970.265 33.6403 970.265 32.7334C970.265 31.9222 970.071 31.266 969.684 30.7646C969.301 30.2588 968.79 30.0059 968.152 30.0059C967.528 30.0059 967.024 30.2542 966.642 30.751C966.259 31.2477 966.067 31.9587 966.067 32.8838ZM976.69 30.2383C976.499 30.2064 976.292 30.1904 976.068 30.1904C975.239 30.1904 974.676 30.5436 974.38 31.25V36.5H973.115V29.1035H974.346L974.366 29.958C974.781 29.2972 975.369 28.9668 976.13 28.9668C976.376 28.9668 976.563 28.9987 976.69 29.0625V30.2383ZM979.917 27.3125V29.1035H981.298V30.0811H979.917V34.668C979.917 34.9642 979.979 35.1875 980.102 35.3379C980.225 35.4837 980.434 35.5566 980.73 35.5566C980.876 35.5566 981.077 35.5293 981.332 35.4746V36.5C980.999 36.5911 980.676 36.6367 980.361 36.6367C979.796 36.6367 979.37 36.4658 979.083 36.124C978.796 35.7822 978.652 35.2969 978.652 34.668V30.0811H977.306V29.1035H978.652V27.3125H979.917Z" fill="black"/>
<rect y="63" width="982" height="1" fill="#EDEDED"/>
</svg>
